<svg width="230" height="230" viewBox="0 0 230 230" fill="none" xmlns="http://www.w3.org/2000/svg">
<g clip-path="url(#clip0_653_4029)">
<g opacity="0.1">
<path fill-rule="evenodd" clip-rule="evenodd" d="M3.89052 123.287C2.30829 101.149 7.4323 79.1545 18.556 59.9442C29.6801 40.7331 46.205 25.3404 66.1928 15.6926C67.2139 15.1988 68.3891 15.4206 69.16 16.2513C69.9312 17.0833 70.0641 18.2723 69.496 19.2534L8.62317 124.379C8.05506 125.36 6.95773 125.837 5.85223 125.582C4.748 125.327 3.97059 124.418 3.89052 123.287ZM106.714 4.88959C128.852 3.30863 150.845 8.43218 170.057 19.5563C189.268 30.6805 204.66 47.2054 214.309 67.1923C214.802 68.2135 214.58 69.3894 213.749 70.1599C212.918 70.9308 211.729 71.0637 210.748 70.4956L105.621 9.62224C104.64 9.05413 104.164 7.95727 104.419 6.85257C104.674 5.74834 105.583 4.97012 106.714 4.88959ZM159.506 211.747L220.378 106.622C220.947 105.64 222.044 105.164 223.149 105.418C224.253 105.673 225.031 106.583 225.111 107.714C226.693 129.851 221.569 151.846 210.444 171.057C199.321 190.267 182.796 205.66 162.809 215.308C161.788 215.802 160.612 215.58 159.841 214.749C159.07 213.917 158.937 212.728 159.506 211.747ZM122.287 226.111C100.15 227.692 78.1554 222.568 58.9443 211.444C39.7332 200.32 24.3413 183.795 14.6922 163.808C14.1992 162.787 14.4216 161.611 15.2523 160.84C16.0838 160.07 17.2719 159.937 18.2531 160.505L123.38 221.378C124.361 221.946 124.837 223.043 124.582 224.148C124.328 225.252 123.419 226.031 122.287 226.111Z" fill="white"/>
</g>
<g opacity="0.1">
<path fill-rule="evenodd" clip-rule="evenodd" d="M48.0464 82.5207C54.5325 69.1704 64.8545 58.1455 77.7203 50.7393C90.5866 43.3327 105.304 39.9434 120.106 41.0392C120.863 41.0947 121.469 41.6162 121.638 42.355C121.806 43.0948 121.486 43.8278 120.829 44.2061L50.4221 84.7359C49.765 85.1141 48.9702 85.0232 48.4151 84.506C47.8609 83.989 47.7145 83.2028 48.0464 82.5207ZM147.186 48.3318C160.536 54.8187 171.561 65.1402 178.968 78.0065C186.374 90.8729 189.763 105.59 188.668 120.392C188.613 121.149 188.091 121.755 187.351 121.923C186.613 122.092 185.88 121.772 185.501 121.115L144.971 50.7075C144.593 50.0505 144.684 49.2561 145.201 48.7013C145.718 48.1471 146.505 48.0004 147.186 48.3318ZM108.593 185.787L178.999 145.257C179.656 144.879 180.451 144.97 181.006 145.487C181.56 146.004 181.707 146.791 181.375 147.473C174.889 160.822 164.567 171.847 151.7 179.254C138.834 186.66 124.117 190.049 109.315 188.954C108.559 188.899 107.952 188.377 107.783 187.638C107.615 186.899 107.936 186.165 108.593 185.787ZM82.2348 181.661C68.885 175.175 57.8601 164.853 50.4535 151.986C43.047 139.12 39.658 124.403 40.753 109.601C40.8088 108.845 41.3307 108.238 42.0696 108.069C42.8088 107.901 43.5415 108.221 43.9198 108.878L84.4499 179.285C84.8282 179.942 84.7373 180.737 84.2203 181.291C83.7036 181.846 82.9169 181.993 82.2348 181.661Z" fill="white"/>
</g>
</g>
<defs>
<clipPath id="clip0_653_4029">
<rect width="230" height="230" fill="white"/>
</clipPath>
</defs>
</svg>
