<svg width="190" height="175" viewBox="0 0 190 175" fill="none" xmlns="http://www.w3.org/2000/svg">
<g clip-path="url(#clip0_620_4032)">
<g opacity="0.1">
<path fill-rule="evenodd" clip-rule="evenodd" d="M4.38954 66.2867C2.80731 44.1488 7.93132 22.1545 19.055 2.9442C30.1792 -16.2669 46.7041 -31.6596 66.6918 -41.3074C67.7129 -41.8012 68.8881 -41.5794 69.659 -40.7487C70.4303 -39.9167 70.5632 -38.7277 69.995 -37.7466L9.12219 67.3791C8.55408 68.3602 7.45676 68.8368 6.35125 68.582C5.24702 68.3269 4.46961 67.4182 4.38954 66.2867ZM107.213 -52.1104C129.351 -53.6914 151.344 -48.5678 170.556 -37.4437C189.767 -26.3195 205.159 -9.79463 214.808 10.1923C215.301 11.2135 215.079 12.3894 214.248 13.1599C213.417 13.9308 212.228 14.0637 211.247 13.4956L106.12 -47.3778C105.139 -47.9459 104.663 -49.0427 104.918 -50.1474C105.173 -51.2517 106.082 -52.0299 107.213 -52.1104ZM160.005 154.747L220.877 49.6216C221.446 48.6405 222.543 48.1639 223.648 48.4182C224.752 48.6733 225.53 49.5825 225.61 50.714C227.192 72.8514 222.068 94.8458 210.943 114.057C199.82 133.267 183.295 148.66 163.308 158.308C162.287 158.802 161.111 158.58 160.34 157.749C159.569 156.917 159.437 155.728 160.005 154.747ZM122.786 169.111C100.649 170.692 78.6544 165.568 59.4433 154.444C40.2323 143.32 24.8404 126.795 15.1912 106.808C14.6982 105.787 14.9206 104.611 15.7513 103.84C16.5828 103.07 17.771 102.937 18.7521 103.505L123.879 164.378C124.86 164.946 125.336 166.043 125.081 167.148C124.827 168.252 123.918 169.031 122.786 169.111Z" fill="url(#paint0_linear_620_4032)"/>
</g>
<g opacity="0.1">
<path fill-rule="evenodd" clip-rule="evenodd" d="M48.5455 25.521C55.0315 12.1706 65.3535 1.14578 78.2193 -6.26049C91.0857 -13.6671 105.803 -17.0563 120.605 -15.9605C121.362 -15.905 121.968 -15.3836 122.137 -14.6447C122.305 -13.905 121.985 -13.1719 121.328 -12.7937L50.9212 27.7361C50.2641 28.1144 49.4692 28.0235 48.9141 27.5063C48.3599 26.9893 48.2135 26.203 48.5455 25.521ZM147.685 -8.66791C161.035 -2.18103 172.06 8.14043 179.467 21.0068C186.873 33.8731 190.262 48.5906 189.167 63.3923C189.112 64.1488 188.59 64.7556 187.85 64.9237C187.112 65.0924 186.379 64.7719 186 64.1148L145.47 -6.29222C145.092 -6.9493 145.183 -7.74365 145.7 -8.29841C146.217 -8.85264 147.004 -8.99933 147.685 -8.66791ZM109.092 128.787L179.498 88.2577C180.155 87.8794 180.95 87.9703 181.505 88.487C182.059 89.004 182.206 89.7908 181.874 90.4728C175.388 103.823 165.066 114.847 152.199 122.254C139.333 129.66 124.616 133.05 109.814 131.954C109.058 131.899 108.451 131.377 108.282 130.638C108.114 129.899 108.435 129.166 109.092 128.787ZM82.7338 124.661C69.384 118.175 58.3591 107.853 50.9526 94.9865C43.546 82.1201 40.1571 67.4032 41.252 52.6009C41.3078 51.8449 41.8298 51.2382 42.5687 51.0695C43.3079 50.9013 44.0406 51.2214 44.4188 51.8785L84.9489 122.285C85.3272 122.943 85.2363 123.737 84.7193 124.292C84.2027 124.846 83.4159 124.993 82.7338 124.661Z" fill="url(#paint1_linear_620_4032)"/>
</g>
</g>
<defs>
<linearGradient id="paint0_linear_620_4032" x1="-4.76547" y1="117.264" x2="236.504" y2="143.918" gradientUnits="userSpaceOnUse">
<stop stop-color="#2F8D37"/>
<stop offset="1" stop-color="#4DAB55"/>
</linearGradient>
<linearGradient id="paint1_linear_620_4032" x1="26.1977" y1="51.9835" x2="157.018" y2="148.095" gradientUnits="userSpaceOnUse">
<stop stop-color="#2F8D37"/>
<stop offset="1" stop-color="#4DAB55"/>
</linearGradient>
<clipPath id="clip0_620_4032">
<rect width="190" height="175" fill="white"/>
</clipPath>
</defs>
</svg>
