<svg width="45" height="45" viewBox="0 0 45 45" fill="none" xmlns="http://www.w3.org/2000/svg">
<path d="M41.3832 36.442L41.3935 36.4361L38.1153 30.7585H39.4054V30.7526C39.6745 30.7526 39.8928 30.5348 39.8928 30.2657C39.8928 30.1825 39.8662 30.1078 39.8298 30.0394L39.8383 30.0344L36.8067 24.7834H37.5442V24.7793C37.6364 24.7793 37.7248 24.7427 37.79 24.6776C37.8552 24.6124 37.892 24.5241 37.8921 24.4319C37.8907 24.3752 37.8753 24.3196 37.8471 24.2704L37.8529 24.2668L33.442 16.6262L33.4375 16.6289C33.3895 16.5279 33.3139 16.4425 33.2195 16.3825C33.1251 16.3225 33.0157 16.2903 32.9038 16.2896C32.668 16.2896 32.4682 16.4296 32.3706 16.628L32.3683 16.6267L27.9574 24.2668L27.9583 24.2672C27.9287 24.3171 27.9124 24.3739 27.9111 24.4319C27.9111 24.6236 28.0668 24.7793 28.2589 24.7793V24.7834H29.0064L25.9747 30.0344L25.9761 30.0349C25.9347 30.1049 25.9119 30.1844 25.9099 30.2657C25.9099 30.5348 26.1282 30.7526 26.3973 30.7526V30.7585H27.6996L26.7546 32.3956L22.975 25.849H24.7957V25.8409C25.1755 25.8409 25.4833 25.5326 25.4833 25.1533C25.4833 25.0363 25.4514 24.9274 25.3996 24.8306L25.4064 24.8266L21.1282 17.4164H22.1691V17.411C22.2336 17.4111 22.2975 17.3984 22.3571 17.3737C22.4167 17.349 22.4709 17.3128 22.5165 17.2672C22.5621 17.2215 22.5983 17.1673 22.6229 17.1077C22.6475 17.0481 22.6601 16.9841 22.66 16.9196C22.66 16.8359 22.6335 16.7608 22.5966 16.6919L22.6051 16.687L16.3798 5.90631L16.3776 5.90766C16.3089 5.76506 16.2014 5.64469 16.0674 5.56033C15.9335 5.47597 15.7785 5.43103 15.6202 5.43066C15.2791 5.43066 14.9866 5.63406 14.8534 5.92566L8.64026 16.687L8.64161 16.6879C8.59986 16.7583 8.57692 16.8382 8.57501 16.9201C8.5749 16.9846 8.5875 17.0484 8.61209 17.108C8.63669 17.1677 8.6728 17.2218 8.71836 17.2675C8.76392 17.3131 8.81803 17.3493 8.8776 17.374C8.93717 17.3987 9.00102 17.4115 9.06551 17.4115V17.4169H10.1208L5.89301 24.7393C5.80142 24.8579 5.75145 25.0034 5.75081 25.1533C5.75081 25.5331 6.05906 25.8409 6.43841 25.8409V25.849H8.27621L3.71321 33.7532C3.60521 33.8945 3.53906 34.0691 3.53906 34.2608C3.53906 34.7252 3.91616 35.1023 4.38101 35.1023V35.1118H13.2816V38.9053C13.2816 39.272 13.579 39.5699 13.9458 39.5699H17.2681C17.6349 39.5699 17.9328 39.2725 17.9328 38.9053V35.1118H25.1868L24.4222 36.4361L24.4236 36.437C24.3768 36.5221 24.3426 36.6152 24.3426 36.7196C24.3426 37.049 24.6094 37.3159 24.9388 37.3159V37.3226H31.246V39.0961C31.246 39.3562 31.4571 39.5668 31.7167 39.5668H34.0711C34.3312 39.5668 34.5418 39.3562 34.5418 39.0961V37.3226H40.8643V37.3159C41.1937 37.3159 41.461 37.049 41.461 36.7196C41.4587 36.622 41.432 36.5265 41.3832 36.442Z" fill="url(#paint0_linear_624_4023)"/>
<defs>
<linearGradient id="paint0_linear_624_4023" x1="9.81077" y1="39.5699" x2="46.4125" y2="21.6644" gradientUnits="userSpaceOnUse">
<stop stop-color="#2F8D37"/>
<stop offset="1" stop-color="#4DAB55"/>
</linearGradient>
</defs>
</svg>
