<svg width="35" height="35" viewBox="0 0 35 35" fill="none" xmlns="http://www.w3.org/2000/svg">
<circle cx="17.5" cy="17.5" r="17.5" fill="url(#paint0_linear_607_3987)"/>
<path fill-rule="evenodd" clip-rule="evenodd" d="M17.3061 22.9246H18.5794C18.5794 22.9246 18.9613 22.8611 19.1523 22.6708C19.3433 22.4806 19.3433 22.1 19.3433 22.1C19.3433 22.1 19.3433 20.4508 20.1073 20.1971C20.8712 19.9434 21.8898 21.8463 22.9084 22.544C23.6723 23.1148 24.2453 22.988 24.2453 22.988L27.0464 22.9246C27.0464 22.9246 28.5106 22.8611 27.8103 21.656C27.7467 21.5926 27.4284 20.8314 25.7095 19.2457C23.927 17.5966 24.1816 17.9137 26.2824 15.0594C27.5557 13.3469 28.065 12.332 27.9377 11.8246C27.8103 11.3806 26.8554 11.5074 26.8554 11.5074H23.6723C23.6723 11.5074 23.4177 11.444 23.2903 11.5709C23.0994 11.6977 23.0357 11.888 23.0357 11.888C23.0357 11.888 22.5264 13.22 21.8898 14.3617C20.4892 16.7086 19.9163 16.8354 19.7253 16.7086C19.216 16.3914 19.3433 15.3131 19.3433 14.6154C19.3433 12.332 19.7253 11.3806 18.643 11.1269C18.3247 11.0634 18.0701 11 17.1788 11C16.0329 11 15.078 11 14.5687 11.2537C14.1867 11.444 13.9321 11.8246 14.123 11.8246C14.314 11.8246 14.8233 11.9514 15.078 12.2686C15.3326 12.8394 15.3326 13.7909 15.3326 13.7909C15.3326 13.7909 15.5236 16.5183 14.887 16.8354C14.4414 17.0891 13.8684 16.5817 12.5952 14.4251C11.9585 13.3469 11.4493 12.0783 11.4493 12.0783C11.4493 12.0783 11.3856 11.8246 11.1946 11.6977C11.0036 11.5709 10.6853 11.5074 10.6853 11.5074H7.69321C7.69321 11.5074 7.24757 11.5074 7.05659 11.6977C6.92926 11.888 7.05659 12.2051 7.05659 12.2051C7.05659 12.2051 9.41207 17.66 12.0859 20.4508C14.5687 23.1148 17.3061 22.9246 17.3061 22.9246V22.9246Z" fill="white"/>
<defs>
<linearGradient id="paint0_linear_607_3987" x1="2.99342" y1="35" x2="35.4328" y2="32.6305" gradientUnits="userSpaceOnUse">
<stop stop-color="#2861A6"/>
<stop offset="1" stop-color="#467FC4"/>
</linearGradient>
</defs>
</svg>
