<svg width="45" height="45" viewBox="0 0 45 45" fill="none" xmlns="http://www.w3.org/2000/svg">
<path d="M26.3475 3.43678C26.0595 3.20141 25.7277 3.02551 25.3713 2.91924C25.0148 2.81297 24.6409 2.77846 24.271 2.81769C23.9012 2.85693 23.5427 2.96914 23.2165 3.14782C22.8903 3.3265 22.6028 3.5681 22.3706 3.85865L14.2256 14.0624H17.8256L24.5672 5.61365L26.7328 7.38271L21.3047 14.0624H24.9272L28.9125 9.1574L33.7444 13.1033L32.9062 14.0624H33.75C34.5887 14.0615 35.4229 14.1857 36.225 14.4308C36.5314 13.856 36.6288 13.1927 36.5006 12.5541C36.3723 11.9155 36.0264 11.3412 35.5219 10.9293L26.3475 3.43678ZM8.4375 15.4686C8.4375 15.0957 8.58566 14.738 8.84938 14.4743C9.1131 14.2106 9.47079 14.0624 9.84375 14.0624H11.4131L13.6491 11.2499H9.84375C8.72487 11.2499 7.65181 11.6944 6.86064 12.4855C6.06947 13.2767 5.625 14.3498 5.625 15.4686V32.3436C5.625 34.2084 6.36579 35.9969 7.68441 37.3155C9.00302 38.6341 10.7914 39.3749 12.6562 39.3749H33.75C35.2418 39.3749 36.6726 38.7823 37.7275 37.7274C38.7824 36.6725 39.375 35.2417 39.375 33.7499V22.4999C39.375 21.0081 38.7824 19.5773 37.7275 18.5224C36.6726 17.4675 35.2418 16.8749 33.75 16.8749H9.84375C9.47079 16.8749 9.1131 16.7267 8.84938 16.463C8.58566 16.1993 8.4375 15.8416 8.4375 15.4686ZM29.5312 28.1249H32.3438C32.7167 28.1249 33.0744 28.273 33.3381 28.5368C33.6018 28.8005 33.75 29.1582 33.75 29.5311C33.75 29.9041 33.6018 30.2618 33.3381 30.5255C33.0744 30.7892 32.7167 30.9374 32.3438 30.9374H29.5312C29.1583 30.9374 28.8006 30.7892 28.5369 30.5255C28.2732 30.2618 28.125 29.9041 28.125 29.5311C28.125 29.1582 28.2732 28.8005 28.5369 28.5368C28.8006 28.273 29.1583 28.1249 29.5312 28.1249Z" fill="url(#paint0_linear_628_4027)"/>
<defs>
<linearGradient id="paint0_linear_628_4027" x1="11.2067" y1="39.3749" x2="45.8547" y2="25.2937" gradientUnits="userSpaceOnUse">
<stop stop-color="#2F8D37"/>
<stop offset="1" stop-color="#4DAB55"/>
</linearGradient>
</defs>
</svg>
