<svg width="28" height="28" viewBox="0 0 28 28" fill="none" xmlns="http://www.w3.org/2000/svg">
<path d="M24.4766 24.5V7.875L16.6016 0H6.97656C6.0483 0 5.15807 0.368749 4.50169 1.02513C3.84531 1.6815 3.47656 2.57174 3.47656 3.5V24.5C3.47656 25.4283 3.84531 26.3185 4.50169 26.9749C5.15807 27.6313 6.0483 28 6.97656 28H20.9766C21.9048 28 22.7951 27.6313 23.4514 26.9749C24.1078 26.3185 24.4766 25.4283 24.4766 24.5ZM16.6016 5.25C16.6016 5.94619 16.8781 6.61387 17.3704 7.10616C17.8627 7.59844 18.5304 7.875 19.2266 7.875H22.7266V24.5C22.7266 24.9641 22.5422 25.4092 22.214 25.7374C21.8858 26.0656 21.4407 26.25 20.9766 26.25H6.97656C6.51243 26.25 6.06731 26.0656 5.73913 25.7374C5.41094 25.4092 5.22656 24.9641 5.22656 24.5V3.5C5.22656 3.03587 5.41094 2.59075 5.73913 2.26256C6.06731 1.93437 6.51243 1.75 6.97656 1.75H16.6016V5.25Z" fill="#2F8D37"/>
<path d="M9.46109 14.5287L11.3751 17.378L13.2782 14.5287H14.9094L12.2342 18.4437L14.8224 22.25H13.1912L11.3751 19.5095L9.54809 22.25H7.90597L10.4942 18.4437L7.81897 14.5287H9.46109ZM15.6868 22.25V14.5287H17.1876V20.9341H21.1243V22.25H15.6868Z" fill="#2F8D37"/>
</svg>
