<svg width="35" height="35" viewBox="0 0 35 35" fill="none" xmlns="http://www.w3.org/2000/svg">
<circle cx="17.5" cy="17.5" r="17.5" fill="url(#paint0_linear_607_3990)"/>
<path d="M24.854 9.84967C24.3573 9.4183 22.3457 8.03159 17.8658 8.01338C17.8658 8.01338 12.5796 7.7134 10.0045 9.95415C8.57216 11.3124 8.0705 13.3014 8.0129 15.7685C7.95531 18.2357 7.89103 22.8596 12.5913 24.1165H12.5955L12.5913 26.0312C12.5913 26.0312 12.5604 26.8069 13.0979 26.9628C13.7474 27.1559 14.1313 26.5654 14.7532 25.9307C15.0937 25.5816 15.5628 25.0703 15.9193 24.6801C17.9618 24.8595 20.0216 24.7104 22.0118 24.2392L21.8866 24.2645C22.536 24.0643 26.2104 23.6187 26.8047 18.9955C27.4257 14.2227 26.5092 11.2118 24.854 9.84967ZM25.3982 18.6472C24.8916 22.5058 21.915 22.7512 21.3674 22.9174C20.1721 23.2055 18.7998 23.3701 17.3867 23.3701C16.981 23.3701 16.5787 23.3567 16.1805 23.3298L16.234 23.3329C16.234 23.3329 14.1989 25.6592 13.5654 26.2639C13.3584 26.4602 13.1305 26.4443 13.1347 26.0525C13.1347 25.7969 13.1505 22.8723 13.1505 22.8723C9.17148 21.8259 9.40186 17.8874 9.4486 15.8303C9.49534 13.7732 9.90268 12.0825 11.1155 10.9475C13.2958 9.074 17.784 9.35181 17.784 9.35181C21.5761 9.36685 23.3916 10.4504 23.8139 10.8137C25.2113 11.9495 25.9233 14.6668 25.3982 18.6472ZM19.9634 15.649V15.6601C19.9617 15.7217 19.935 15.7804 19.889 15.8239C19.843 15.8675 19.7811 15.8926 19.716 15.8941C19.651 15.8957 19.5879 15.8735 19.5396 15.8321C19.4914 15.7908 19.4617 15.7335 19.4568 15.672C19.4738 15.5067 19.4527 15.3391 19.3951 15.1823C19.3376 15.0255 19.2448 14.8825 19.1232 14.763C19.0016 14.6435 18.8542 14.5504 18.691 14.4902C18.5278 14.43 18.3528 14.4041 18.178 14.4143H18.1813C18.1165 14.4095 18.056 14.3813 18.0124 14.3355C17.9689 14.2896 17.9455 14.2297 17.9473 14.168C17.949 14.1064 17.9756 14.0477 18.0217 14.0041C18.0677 13.9605 18.1296 13.9353 18.1947 13.9338H18.2089L18.2656 13.933C18.4987 13.933 18.7292 13.9783 18.943 14.0663C19.1568 14.1542 19.3492 14.2829 19.5084 14.4444C19.6675 14.6058 19.7899 14.7965 19.8681 15.0047C19.9462 15.2129 19.9784 15.4341 19.9626 15.6546V15.6498L19.9634 15.649ZM20.7572 16.0693C20.7965 14.4958 19.7598 13.2642 17.7915 13.1265C17.7574 13.1255 17.7238 13.1179 17.6928 13.1043C17.6618 13.0907 17.634 13.0713 17.6111 13.0472C17.5882 13.0232 17.5707 12.995 17.5595 12.9644C17.5484 12.9337 17.5439 12.9013 17.5463 12.869C17.5488 12.8366 17.558 12.8051 17.5736 12.7763C17.5892 12.7475 17.6107 12.7219 17.637 12.7012C17.6632 12.6804 17.6936 12.6649 17.7264 12.6556C17.7591 12.6462 17.7935 12.6433 17.8274 12.6468H17.8408C18.3079 12.6468 18.77 12.7374 19.1989 12.9129C19.6278 13.0884 20.0143 13.3451 20.3347 13.6674C20.6551 13.9897 20.9027 14.3707 21.0622 14.787C21.2217 15.2033 21.2898 15.6461 21.2622 16.0883L21.2631 16.0796C21.2586 16.1409 21.2295 16.1983 21.1818 16.24C21.1341 16.2817 21.0714 16.3044 21.0066 16.3036C20.9417 16.3028 20.8797 16.2785 20.8332 16.2356C20.7866 16.1928 20.7592 16.1347 20.7564 16.0733V16.0669L20.7572 16.0693ZM22.5936 16.5672V16.5687C22.5902 16.6301 22.5622 16.6879 22.5153 16.7303C22.4685 16.7727 22.4062 16.7965 22.3415 16.7968C22.2767 16.7971 22.2142 16.7739 22.1669 16.7319C22.1196 16.69 22.091 16.6324 22.0869 16.5711C22.0669 13.546 19.9392 11.8989 17.3608 11.8815C17.3276 11.8815 17.2947 11.8753 17.264 11.8632C17.2333 11.8512 17.2055 11.8335 17.182 11.8112C17.1585 11.7889 17.1399 11.7625 17.1271 11.7334C17.1144 11.7043 17.1079 11.6731 17.1079 11.6416C17.1079 11.6101 17.1144 11.579 17.1271 11.5499C17.1399 11.5208 17.1585 11.4943 17.182 11.4721C17.2055 11.4498 17.2333 11.4321 17.264 11.4201C17.2947 11.408 17.3276 11.4018 17.3608 11.4018C20.2481 11.4208 22.5686 13.3101 22.5919 16.5664L22.5936 16.5672ZM22.1554 20.2065V20.2136C21.733 20.9189 20.9425 21.6977 20.1287 21.4492L20.1212 21.4381C18.6702 20.9318 17.3101 20.2166 16.0887 19.3176L16.1229 19.3414C15.5152 18.8838 14.9638 18.3626 14.4794 17.7877L14.4635 17.7679C14.0249 17.2443 13.6334 16.6867 13.2933 16.101L13.2599 16.0384C12.8574 15.4093 12.5238 14.7428 12.2641 14.0494L12.239 13.9718C11.9769 13.2001 12.7941 12.4506 13.542 12.0501H13.5495C13.6967 11.9607 13.8734 11.926 14.0458 11.9524C14.2183 11.9788 14.3744 12.0646 14.4844 12.1933L14.4852 12.1949C14.4852 12.1949 14.9702 12.7434 15.178 13.0149C15.3734 13.2674 15.6363 13.6718 15.7724 13.8974C15.8748 14.0516 15.9165 14.2351 15.8901 14.4155C15.8636 14.596 15.7708 14.7618 15.628 14.8836L15.6271 14.8844L15.158 15.2406C15.0849 15.3075 15.0283 15.3891 14.9925 15.4793C14.9567 15.5695 14.9426 15.6661 14.951 15.7622V15.7598C15.1833 16.4938 15.6025 17.1623 16.1717 17.7063C16.7409 18.2503 17.4425 18.6531 18.2147 18.8791L18.2498 18.8879C18.3506 18.8954 18.4519 18.8818 18.5465 18.848C18.6412 18.8142 18.7268 18.7611 18.7973 18.6924L19.173 18.2475C19.302 18.1115 19.4777 18.0232 19.6689 17.9984C19.8601 17.9736 20.0544 18.0139 20.2172 18.1122L20.2138 18.1106C20.8925 18.4771 21.4793 18.8799 22.0143 19.3366L22.0051 19.3287C22.1409 19.4313 22.2312 19.5784 22.2584 19.741C22.2856 19.9036 22.2476 20.0699 22.152 20.2073L22.1537 20.2049L22.1554 20.2065Z" fill="white"/>
<defs>
<linearGradient id="paint0_linear_607_3990" x1="7" y1="31.5" x2="30.5" y2="3.5" gradientUnits="userSpaceOnUse">
<stop stop-color="#683E88"/>
<stop offset="1" stop-color="#7C529C"/>
</linearGradient>
</defs>
</svg>
