<svg width="18" height="18" viewBox="0 0 18 18" fill="none" xmlns="http://www.w3.org/2000/svg">
<path d="M16.2844 12.3121C16.16 13.2616 15.695 14.1336 14.976 14.766C14.2569 15.3984 13.3326 15.7482 12.375 15.7503C6.79219 15.7503 2.25 11.2082 2.25 5.62534C2.25211 4.66773 2.6019 3.74346 3.23432 3.02438C3.86675 2.30531 4.73878 1.84035 5.68828 1.71597C5.93033 1.68913 6.17463 1.74009 6.38577 1.86146C6.5969 1.98283 6.76388 2.1683 6.8625 2.39097L8.27578 5.68862C8.34909 5.85979 8.37848 6.04656 8.36129 6.23197C8.3441 6.41739 8.28087 6.59557 8.17734 6.75034L7.01016 8.53628C7.53868 9.60889 8.40955 10.4748 9.48516 10.9972L11.25 9.823C11.4046 9.71878 11.5832 9.65569 11.769 9.6397C11.9548 9.6237 12.1416 9.65533 12.3117 9.73159L15.6094 11.1378C15.832 11.2365 16.0175 11.4034 16.1389 11.6146C16.2603 11.8257 16.3112 12.07 16.2844 12.3121Z" fill="#FEFEFE"/>
</svg>
