<svg width="45" height="45" viewBox="0 0 45 45" fill="none" xmlns="http://www.w3.org/2000/svg">
<path d="M5.625 7.5C4.63044 7.5 3.67661 7.89509 2.97335 8.59835C2.27009 9.30161 1.875 10.2554 1.875 11.25V30C1.875 31.0355 2.71447 31.875 3.75 31.875V31.875C4.78553 31.875 5.59578 32.737 5.93463 33.7155C6.21059 34.5124 6.66486 35.2448 7.27252 35.8525C8.32742 36.9074 9.75816 37.5 11.25 37.5C12.7418 37.5 14.1726 36.9074 15.2275 35.8525C15.8051 35.2748 16.2441 34.5845 16.5232 33.8332C16.9077 32.7977 17.7704 31.875 18.875 31.875H26.125C27.2296 31.875 28.0923 32.7977 28.4768 33.8332C28.7559 34.5845 29.1949 35.2748 29.7725 35.8525C30.8274 36.9074 32.2582 37.5 33.75 37.5C35.2418 37.5 36.6726 36.9074 37.7275 35.8525C38.3351 35.2448 38.7894 34.5124 39.0654 33.7155C39.4042 32.737 40.2145 31.875 41.25 31.875V31.875C42.2855 31.875 43.125 31.0355 43.125 30V23.1667C43.125 22.7339 42.9846 22.3129 42.725 21.9667L38.1 15.8C37.7223 15.2964 37.1295 15 36.5 15H33.875C32.7704 15 31.875 14.1046 31.875 13V7.5M31.875 17.8125H35.5922C36.2049 17.8125 36.7838 18.0934 37.1631 18.5746L37.7048 19.2621C38.7385 20.574 37.8041 22.5 36.1339 22.5H31.875M11.25 29.0625C11.9959 29.0625 12.7113 29.3588 13.2387 29.8863C13.7662 30.4137 14.0625 31.1291 14.0625 31.875C14.0625 32.6209 13.7662 33.3363 13.2387 33.8637C12.7113 34.3912 11.9959 34.6875 11.25 34.6875C10.5041 34.6875 9.78871 34.3912 9.26126 33.8637C8.73381 33.3363 8.4375 32.6209 8.4375 31.875C8.4375 31.1291 8.73381 30.4137 9.26126 29.8863C9.78871 29.3588 10.5041 29.0625 11.25 29.0625ZM33.75 29.0625C34.4959 29.0625 35.2113 29.3588 35.7387 29.8863C36.2662 30.4137 36.5625 31.1291 36.5625 31.875C36.5625 32.6209 36.2662 33.3363 35.7387 33.8637C35.2113 34.3912 34.4959 34.6875 33.75 34.6875C33.0041 34.6875 32.2887 34.3912 31.7613 33.8637C31.2338 33.3363 30.9375 32.6209 30.9375 31.875C30.9375 31.1291 31.2338 30.4137 31.7613 29.8863C32.2887 29.3588 33.0041 29.0625 33.75 29.0625Z" fill="url(#paint0_linear_628_4029)"/>
<defs>
<linearGradient id="paint0_linear_628_4029" x1="8.69711" y1="37.5" x2="44.8004" y2="15.6377" gradientUnits="userSpaceOnUse">
<stop stop-color="#2F8D37"/>
<stop offset="1" stop-color="#4DAB55"/>
</linearGradient>
</defs>
</svg>
