<svg width="18" height="18" viewBox="0 0 18 18" fill="none" xmlns="http://www.w3.org/2000/svg">
<path fill-rule="evenodd" clip-rule="evenodd" d="M12.4133 16.5996C11.3333 16.5599 8.27252 16.1369 5.06702 12.9321C1.86227 9.72661 1.44002 6.66661 1.39952 5.58586C1.33952 3.93886 2.60102 2.33911 4.05827 1.71436C4.23375 1.63858 4.42592 1.60973 4.61592 1.63064C4.80591 1.65154 4.98721 1.72149 5.14202 1.83361C6.34202 2.70811 7.17002 4.03111 7.88102 5.07136C8.03746 5.2999 8.10434 5.57802 8.06894 5.8527C8.03353 6.12739 7.8983 6.37945 7.68902 6.56086L6.22577 7.64761C6.15507 7.69866 6.10531 7.77363 6.08572 7.8586C6.06614 7.94357 6.07806 8.03276 6.11927 8.10961C6.45077 8.71186 7.04027 9.60886 7.71527 10.2839C8.39102 10.9589 9.33002 11.5874 9.97427 11.9564C10.055 12.0017 10.1501 12.0144 10.24 11.9918C10.3298 11.9692 10.4076 11.913 10.4573 11.8349L11.4098 10.3851C11.5849 10.1525 11.8432 9.99666 12.1307 9.95024C12.4181 9.90383 12.7123 9.97043 12.9518 10.1361C14.007 10.8666 15.2385 11.6804 16.14 12.8346C16.2612 12.9905 16.3383 13.1762 16.3633 13.3721C16.3882 13.568 16.3601 13.767 16.2818 13.9484C15.654 15.4131 14.0655 16.6604 12.4133 16.5996Z" fill="url(#paint0_linear_611_5300)"/>
<defs>
<linearGradient id="paint0_linear_611_5300" x1="3.87404" y1="16.6017" x2="18.8775" y2="9.99558" gradientUnits="userSpaceOnUse">
<stop stop-color="#2F8D37"/>
<stop offset="1" stop-color="#4DAB55"/>
</linearGradient>
</defs>
</svg>
