<svg width="24" height="24" viewBox="0 0 24 24" fill="none" xmlns="http://www.w3.org/2000/svg">
<circle cx="12" cy="12" r="12" fill="url(#paint0_linear_607_3943)"/>
<path d="M10.9889 14.3433L10.4835 6.26074H13.5161L13.0107 14.3433H10.9889ZM11.9998 18.7825C11.5433 18.7825 11.1683 18.6233 10.8748 18.305C10.5813 17.9866 10.4346 17.6093 10.4346 17.173C10.4346 16.725 10.5813 16.3536 10.8748 16.0588C11.1683 15.7523 11.5433 15.599 11.9998 15.599C12.4672 15.599 12.8422 15.7523 13.1248 16.0588C13.4183 16.3536 13.565 16.725 13.565 17.173C13.565 17.6093 13.4183 17.9866 13.1248 18.305C12.8422 18.6233 12.4672 18.7825 11.9998 18.7825Z" fill="white"/>
<defs>
<linearGradient id="paint0_linear_607_3943" x1="3.96923" y1="24" x2="28.0138" y2="13.4108" gradientUnits="userSpaceOnUse">
<stop stop-color="#2F8D37"/>
<stop offset="1" stop-color="#4DAB55"/>
</linearGradient>
</defs>
</svg>
