<svg width="212" height="51" viewBox="0 0 212 51" fill="none" xmlns="http://www.w3.org/2000/svg">
<g clip-path="url(#clip0_610_5198)">
<path d="M61.2607 21.3778V10.7689C61.2607 10.5362 61.3385 10.3384 61.4968 10.1813C61.6549 10.0213 61.842 9.94287 62.0607 9.94287H66.7734C69.2131 9.94287 70.9854 10.4344 72.096 11.4207C73.2065 12.4067 73.7619 13.9513 73.7619 16.0574C73.7619 18.1606 73.2065 19.7052 72.096 20.6885C70.9854 21.6717 69.2131 22.1633 66.7734 22.1633H62.0607C61.842 22.1633 61.6549 22.0876 61.4968 21.9364C61.3385 21.7881 61.2607 21.6019 61.2607 21.3778ZM64.4372 19.7517H66.6813C68.1918 19.7517 69.2218 19.4725 69.7655 18.9169C70.3093 18.3583 70.5827 17.4072 70.5827 16.0574C70.5827 14.7077 70.3093 13.7536 69.7655 13.1922C69.2218 12.6336 68.1918 12.3544 66.6813 12.3544H64.4372V19.7517Z" fill="white"/>
<path d="M76.4863 21.3458V10.7342C76.4863 10.513 76.5641 10.3268 76.7224 10.1726C76.8805 10.0185 77.0676 9.94287 77.2863 9.94287H87.0052C87.2237 9.94287 87.4108 10.0213 87.5662 10.1813C87.7215 10.3384 87.7993 10.5304 87.7993 10.7515V11.5544C87.7993 11.7755 87.7215 11.9645 87.5662 12.1187C87.4108 12.2758 87.2237 12.3544 87.0052 12.3544H79.6628V14.8328H85.9867C86.2052 14.8328 86.3923 14.9112 86.5477 15.0683C86.7001 15.2254 86.7778 15.4146 86.7778 15.6357V16.4355C86.7778 16.6567 86.7001 16.8456 86.5477 17.0029C86.3923 17.16 86.2052 17.2384 85.9867 17.2384H79.6628V19.7517H86.9878C87.2036 19.7517 87.385 19.8273 87.5374 19.9816C87.687 20.1357 87.7647 20.3219 87.7647 20.543V21.3634C87.7647 21.5843 87.687 21.7735 87.5287 21.9276C87.3706 22.0846 87.1834 22.1633 86.9647 22.1633H77.2863C77.0676 22.1633 76.8805 22.0846 76.7224 21.9276C76.5641 21.7735 76.4863 21.5785 76.4863 21.3458Z" fill="white"/>
<path d="M90.3486 21.3634V10.7515C90.3486 10.5304 90.4234 10.3384 90.576 10.1813C90.7286 10.0213 90.9126 9.94287 91.1313 9.94287H97.5645C100.962 9.94287 102.663 11.5252 102.663 14.6931C102.663 17.861 100.962 19.4434 97.5645 19.4434H93.5251V21.3634C93.5251 21.5843 93.4503 21.7735 93.295 21.9276C93.1396 22.0846 92.9525 22.1633 92.7338 22.1633H91.1486C90.9299 22.1633 90.7428 22.0846 90.5847 21.9276C90.4264 21.7735 90.3486 21.5843 90.3486 21.3634ZM93.5251 17.0318H96.6035C97.5472 17.0318 98.2637 16.872 98.7528 16.5519C99.2419 16.229 99.4864 15.6123 99.4864 14.6931C99.4864 13.7767 99.2419 13.1573 98.7528 12.8344C98.2637 12.5143 97.5472 12.3544 96.6035 12.3544H93.5251V17.0318Z" fill="white"/>
<path d="M105.212 21.3458V10.7342C105.212 10.513 105.29 10.3268 105.448 10.1726C105.606 10.0185 105.793 9.94287 106.012 9.94287H115.731C115.949 9.94287 116.136 10.0213 116.292 10.1813C116.447 10.3384 116.525 10.5304 116.525 10.7515V11.5544C116.525 11.7755 116.447 11.9645 116.292 12.1187C116.136 12.2758 115.949 12.3544 115.731 12.3544H108.388V14.8328H114.712C114.931 14.8328 115.118 14.9112 115.273 15.0683C115.426 15.2254 115.503 15.4146 115.503 15.6357V16.4355C115.503 16.6567 115.426 16.8456 115.273 17.0029C115.118 17.16 114.931 17.2384 114.712 17.2384H108.388V19.7517H115.713C115.929 19.7517 116.111 19.8273 116.263 19.9816C116.413 20.1357 116.49 20.3219 116.49 20.543V21.3634C116.49 21.5843 116.413 21.7735 116.254 21.9276C116.096 22.0846 115.909 22.1633 115.69 22.1633H106.012C105.793 22.1633 105.606 22.0846 105.448 21.9276C105.29 21.7735 105.212 21.5785 105.212 21.3458Z" fill="white"/>
<path d="M119.075 10.7515C119.075 10.5304 119.153 10.3384 119.311 10.1813C119.469 10.0213 119.656 9.94287 119.875 9.94287H126.728C128.409 9.94287 129.649 10.4316 130.446 11.4089C130.889 11.9471 131.113 12.6366 131.113 13.4742C131.113 14.3119 130.733 15.0452 129.974 15.6706C131.053 16.2551 131.594 17.1627 131.594 18.3963C131.594 19.6296 131.162 20.5663 130.299 21.2034C129.436 21.8434 128.377 22.1633 127.125 22.1633H119.875C119.656 22.1633 119.469 22.0846 119.311 21.9276C119.153 21.7735 119.075 21.5843 119.075 21.3634V10.7515ZM122.252 19.8623H127.074C127.508 19.8623 127.839 19.7314 128.069 19.4695C128.299 19.2077 128.414 18.8501 128.414 18.3963C128.414 17.9425 128.299 17.5846 128.069 17.3228C127.839 17.061 127.508 16.9301 127.074 16.9301H122.252V19.8623ZM122.252 14.6901H126.763C127.117 14.6901 127.402 14.5826 127.615 14.3702C127.828 14.1579 127.934 13.8584 127.934 13.4742C127.934 13.0902 127.828 12.7907 127.615 12.5753C127.402 12.3602 127.117 12.2524 126.763 12.2524H122.252V14.6901Z" fill="white"/>
<path d="M133.646 21.6775C133.646 21.5873 133.68 21.4825 133.755 21.3634L136.079 17.4856C134.491 16.7846 133.697 15.5978 133.703 13.9222C133.703 12.654 134.137 11.6737 135.006 10.9814C135.875 10.2889 136.963 9.94287 138.272 9.94287H144.872C145.079 9.94287 145.257 10.0185 145.407 10.1726C145.557 10.3268 145.632 10.513 145.632 10.7342V21.3778C145.632 21.6019 145.554 21.7881 145.398 21.9364C145.243 22.0876 145.056 22.1633 144.837 22.1633H143.246C143.025 22.1633 142.838 22.0846 142.685 21.9276C142.53 21.7735 142.452 21.5843 142.452 21.3634V17.8347H139.434L137.412 21.3778C137.127 21.9014 136.718 22.1633 136.189 22.1633H134.066C133.783 22.1633 133.646 22.0004 133.646 21.6775ZM138.272 12.3544C137.34 12.3544 136.873 12.8547 136.873 13.8553C136.873 14.8532 137.34 15.3535 138.272 15.3535H142.452V12.3544H138.272Z" fill="white"/>
<path d="M149.041 21.3634V10.7515C149.041 10.5304 149.119 10.3384 149.277 10.1813C149.435 10.0213 149.622 9.94287 149.841 9.94287H151.426C151.645 9.94287 151.832 10.0185 151.987 10.1726C152.143 10.3268 152.217 10.513 152.217 10.7342V19.7517H155.912V10.7342C155.912 10.513 155.989 10.3268 156.148 10.1726C156.303 10.0185 156.493 9.94287 156.711 9.94287H158.297C158.515 9.94287 158.702 10.0213 158.858 10.1813C159.01 10.3384 159.088 10.5304 159.088 10.7515V19.7517H162.788V10.7342C162.788 10.513 162.866 10.3268 163.021 10.1726C163.176 10.0185 163.36 9.94287 163.582 9.94287H165.164C165.386 9.94287 165.573 10.0213 165.726 10.1813C165.881 10.3384 165.958 10.5304 165.958 10.7515V21.3634C165.958 21.5843 165.881 21.7735 165.726 21.9276C165.573 22.0846 165.386 22.1633 165.164 22.1633H149.841C149.622 22.1633 149.435 22.0846 149.277 21.9276C149.119 21.7735 149.041 21.5843 149.041 21.3634Z" fill="white"/>
<path d="M181.887 21.7878C181.887 22.0379 181.74 22.163 181.446 22.163H179.516C179.297 22.163 179.061 22.0844 178.808 21.9273C178.555 21.7733 178.359 21.5841 178.218 21.3632L176.737 18.9835C176.383 18.4046 176.023 17.9683 175.664 17.6746C175.304 17.3836 174.872 17.2381 174.366 17.2381H172.553V21.3775C172.553 21.6016 172.479 21.7878 172.323 21.9361C172.168 22.0874 171.981 22.163 171.762 22.163H170.177C169.958 22.163 169.771 22.0816 169.613 21.9215C169.455 21.7587 169.377 21.5667 169.377 21.3456V10.7513C169.377 10.5301 169.455 10.3382 169.613 10.1723C169.771 10.0067 169.958 9.92505 170.177 9.92505H171.762C171.981 9.92505 172.168 10.0067 172.323 10.1723C172.479 10.3382 172.553 10.5301 172.553 10.7513V14.8326H174.366C174.861 14.8326 175.295 14.6987 175.669 14.4253C176.043 14.1519 176.397 13.7126 176.737 13.1045L178.043 10.7513C178.339 10.2072 178.745 9.93105 179.257 9.92505H181.202C181.472 9.92505 181.608 10.0444 181.608 10.2829C181.608 10.4138 181.559 10.5708 181.464 10.7513L179.634 14.0994C179.372 14.5881 179.076 14.9924 178.745 15.3125C178.417 15.6296 177.988 15.8535 177.462 15.9845C177.83 16.0629 178.213 16.2986 178.604 16.6913C178.992 17.0841 179.338 17.5087 179.634 17.9713L181.743 21.3632C181.838 21.526 181.887 21.6685 181.887 21.7878Z" fill="white"/>
<path d="M184.1 21.3634V10.7515C184.1 10.5188 184.174 10.3268 184.327 10.1726C184.48 10.0185 184.669 9.94287 184.9 9.94287H186.384C186.603 9.94287 186.79 10.0185 186.945 10.1726C187.098 10.3268 187.175 10.513 187.175 10.7342V19.266L191.971 10.7515C192.101 10.5304 192.279 10.3384 192.504 10.1813C192.728 10.0213 192.935 9.94287 193.128 9.94287H195.614C195.833 9.94287 196.02 10.0213 196.169 10.1813C196.322 10.3384 196.397 10.5304 196.397 10.7515V21.3634C196.397 21.5843 196.319 21.7735 196.16 21.9276C196.005 22.0846 195.815 22.1633 195.597 22.1633H194.112C193.893 22.1633 193.706 22.0846 193.554 21.9276C193.398 21.7735 193.321 21.5843 193.321 21.3634V13.4538L188.922 21.3634C188.792 21.5843 188.608 21.7735 188.372 21.9276C188.136 22.0846 187.909 22.1633 187.69 22.1633H184.9C184.681 22.1633 184.494 22.0846 184.336 21.9276C184.177 21.7735 184.1 21.5843 184.1 21.3634Z" fill="white"/>
<path d="M199.806 21.3632V10.7513C199.806 10.5301 199.883 10.3382 200.042 10.1811C200.2 10.021 200.393 9.94263 200.623 9.94263H202.191C202.41 9.94263 202.597 10.021 202.752 10.1811C202.907 10.3382 202.982 10.5301 202.982 10.7513V14.5881H208.782V10.7513C208.782 10.5301 208.86 10.3382 209.018 10.1811C209.177 10.021 209.363 9.94263 209.582 9.94263H211.15C211.38 9.94263 211.573 10.021 211.729 10.1811C211.884 10.3382 211.961 10.5301 211.961 10.7513V21.3632C211.961 21.5841 211.881 21.7733 211.72 21.9273C211.559 22.0844 211.369 22.163 211.15 22.163H209.582C209.363 22.163 209.177 22.0874 209.018 21.9361C208.86 21.7878 208.782 21.6016 208.782 21.3775V16.9997H202.982V21.3775C202.982 21.6016 202.907 21.7878 202.752 21.9361C202.597 22.0874 202.41 22.163 202.191 22.163H200.623C200.404 22.163 200.214 22.0844 200.05 21.9273C199.886 21.7733 199.806 21.5841 199.806 21.3632Z" fill="white"/>
<path d="M64.8997 32.0405C65.5149 32.0405 66.0646 32.1789 66.5491 32.4558C67.0335 32.7326 67.4105 33.1202 67.6801 33.6186C67.9499 34.117 68.0847 34.6856 68.0847 35.3246C68.0847 35.9804 67.9435 36.5619 67.6613 37.0687C67.379 37.5756 66.985 37.9697 66.4796 38.2508C65.9739 38.5319 65.3926 38.6724 64.7355 38.6724C63.6316 38.6724 62.7765 38.2806 62.1698 37.4968C61.5632 36.713 61.2598 35.6312 61.2598 34.2511C61.2598 32.8114 61.5317 31.7082 62.075 30.9416C62.6184 30.1749 63.4673 29.6551 64.6217 29.3826L67.6045 28.6926L67.756 29.5231L64.9504 30.1749C63.9982 30.3879 63.2989 30.7648 62.8523 31.3058C62.4058 31.8466 62.1615 32.6454 62.1193 33.7017C62.3889 33.1819 62.7638 32.7752 63.2442 32.4813C63.7244 32.1875 64.2762 32.0405 64.8997 32.0405ZM64.7607 37.9184C65.2242 37.9184 65.6391 37.8098 66.0055 37.5926C66.3721 37.3755 66.6587 37.0708 66.8651 36.6789C67.0715 36.287 67.1747 35.8441 67.1747 35.3501C67.1747 34.856 67.0736 34.4214 66.8714 34.0467C66.669 33.6717 66.3849 33.3801 66.0182 33.1714C65.6518 32.9627 65.2326 32.8584 64.7607 32.8584C64.289 32.8584 63.8698 32.9627 63.5032 33.1714C63.1367 33.3801 62.8502 33.6717 62.6438 34.0467C62.4374 34.4214 62.3342 34.856 62.3342 35.3501C62.3342 35.8441 62.4374 36.287 62.6438 36.6789C62.8502 37.0708 63.1389 37.3755 63.5095 37.5926C63.8802 37.8098 64.2972 37.9184 64.7607 37.9184Z" fill="white"/>
<path d="M72.6473 31.8232C73.5151 31.8232 74.1808 32.0427 74.6443 32.4813C75.1075 32.9201 75.3394 33.5695 75.3394 34.43V38.5957H74.4798V37.548C74.2776 37.8972 73.9807 38.1698 73.5889 38.3658C73.197 38.5617 72.7317 38.6596 72.1923 38.6596C71.4508 38.6596 70.861 38.4807 70.423 38.1228C69.9848 37.7652 69.7656 37.2924 69.7656 36.7046C69.7656 36.1338 69.9701 35.6738 70.3787 35.3245C70.7873 34.9753 71.4383 34.8007 72.3313 34.8007H74.4421V34.3916C74.4421 33.8125 74.2819 33.3715 73.9617 33.0692C73.6414 32.7667 73.1739 32.6154 72.5587 32.6154C72.1377 32.6154 71.7331 32.6857 71.3455 32.8262C70.9579 32.9668 70.6252 33.1607 70.3471 33.4077L69.9426 32.7304C70.2797 32.4408 70.6841 32.2173 71.156 32.0596C71.6278 31.9021 72.1249 31.8232 72.6473 31.8232ZM72.3313 37.9439C72.8368 37.9439 73.2708 37.8269 73.6332 37.5925C73.9954 37.3584 74.2651 37.0198 74.4421 36.5767V35.4777H72.3566C71.2192 35.4777 70.6504 35.8782 70.6504 36.6789C70.6504 37.0708 70.7979 37.3796 71.0927 37.6054C71.3877 37.8312 71.8005 37.9439 72.3313 37.9439Z" fill="white"/>
<path d="M81.2159 35.0945C81.6876 35.2053 82.0521 35.3971 82.309 35.6696C82.566 35.9422 82.6945 36.2745 82.6945 36.6664C82.6945 37.0583 82.5618 37.4075 82.2965 37.7141C82.0309 38.0208 81.6709 38.2573 81.2159 38.4234C80.7609 38.5894 80.2595 38.6725 79.7119 38.6725C79.2317 38.6725 78.7597 38.6023 78.2963 38.4617C77.833 38.3212 77.4284 38.1146 77.083 37.8418L77.3863 37.1648C77.6897 37.3947 78.0436 37.5736 78.448 37.7013C78.8523 37.8292 79.2611 37.893 79.674 37.893C80.2889 37.893 80.7925 37.7758 81.1843 37.5417C81.5759 37.3075 81.772 36.9899 81.772 36.5897C81.772 36.2318 81.6118 35.9529 81.2918 35.7528C80.9715 35.5524 80.5333 35.4524 79.9772 35.4524H78.8398V34.7879H79.9268C80.4237 34.7879 80.824 34.6921 81.1273 34.5004C81.4308 34.3086 81.5823 34.0511 81.5823 33.7273C81.5823 33.3695 81.4117 33.0884 81.0705 32.884C80.7293 32.6796 80.2847 32.5773 79.7371 32.5773C79.021 32.5773 78.3132 32.7603 77.6139 33.1267L77.361 32.4239C78.153 32.0065 78.9746 31.7979 79.8257 31.7979C80.3311 31.7979 80.7882 31.8722 81.1968 32.0213C81.6056 32.1705 81.9256 32.3813 82.1574 32.6538C82.3891 32.9266 82.505 33.2418 82.505 33.5996C82.505 33.9403 82.3891 34.2426 82.1574 34.5068C81.9256 34.7708 81.6118 34.9668 81.2159 35.0945Z" fill="white"/>
<path d="M87.4093 31.8232C88.2771 31.8232 88.9427 32.0427 89.4062 32.4813C89.8694 32.9201 90.1013 33.5695 90.1013 34.43V38.5957H89.2417V37.548C89.0396 37.8972 88.7427 38.1698 88.3508 38.3658C87.959 38.5617 87.4936 38.6596 86.9543 38.6596C86.2127 38.6596 85.623 38.4807 85.1849 38.1228C84.7465 37.7652 84.5273 37.2924 84.5273 36.7046C84.5273 36.1338 84.7318 35.6738 85.1404 35.3245C85.5492 34.9753 86.2002 34.8007 87.0933 34.8007H89.204V34.3916C89.204 33.8125 89.0438 33.3715 88.7236 33.0692C88.4034 32.7667 87.9359 32.6154 87.3207 32.6154C86.8996 32.6154 86.495 32.6857 86.1074 32.8262C85.7198 32.9668 85.3871 33.1607 85.1089 33.4077L84.7043 32.7304C85.0415 32.4408 85.446 32.2173 85.918 32.0596C86.3897 31.9021 86.8869 31.8232 87.4093 31.8232ZM87.0933 37.9439C87.5987 37.9439 88.0327 37.8269 88.3951 37.5925C88.7573 37.3584 89.0271 37.0198 89.204 36.5767V35.4777H87.1185C85.9811 35.4777 85.4123 35.8782 85.4123 36.6789C85.4123 37.0708 85.5598 37.3796 85.8546 37.6054C86.1496 37.8312 86.5624 37.9439 87.0933 37.9439Z" fill="white"/>
<path d="M102.158 31.8743V38.5958H101.26V32.6795H97.0899V38.5958H96.1924V31.8743H102.158Z" fill="white"/>
<path d="M105.103 31.8743H106V37.2157L110.436 31.8743H111.232V38.5958H110.335V33.2543L105.911 38.5958H105.103V31.8743Z" fill="white"/>
<path d="M119.625 31.8743V38.5958H118.727V32.6795H115.542L115.454 34.3407C115.386 35.7377 115.226 36.8111 114.973 37.5606C114.721 38.3104 114.27 38.6851 113.621 38.6851C113.444 38.6851 113.229 38.651 112.977 38.5829L113.04 37.8034C113.191 37.8375 113.297 37.8546 113.356 37.8546C113.701 37.8546 113.962 37.6928 114.139 37.3691C114.316 37.0453 114.434 36.6449 114.493 36.1679C114.552 35.6908 114.603 35.0604 114.645 34.2766L114.759 31.8743H119.625Z" fill="white"/>
<path d="M125.311 38.6596C124.671 38.6596 124.093 38.5126 123.579 38.2188C123.065 37.9249 122.661 37.5182 122.366 36.9984C122.071 36.4788 121.924 35.8911 121.924 35.235C121.924 34.5791 122.071 33.9912 122.366 33.4716C122.661 32.952 123.065 32.5472 123.579 32.2578C124.093 31.9681 124.671 31.8232 125.311 31.8232C125.951 31.8232 126.528 31.9681 127.042 32.2578C127.556 32.5472 127.959 32.952 128.249 33.4716C128.54 33.9912 128.685 34.5791 128.685 35.235C128.685 35.8911 128.54 36.4788 128.249 36.9984C127.959 37.5182 127.556 37.9249 127.042 38.2188C126.528 38.5126 125.951 38.6596 125.311 38.6596ZM125.311 37.8546C125.783 37.8546 126.206 37.746 126.581 37.5287C126.956 37.3114 127.249 37.0027 127.459 36.6022C127.67 36.202 127.775 35.7462 127.775 35.235C127.775 34.724 127.67 34.2682 127.459 33.8678C127.249 33.4673 126.956 33.1585 126.581 32.9413C126.206 32.724 125.783 32.6154 125.311 32.6154C124.839 32.6154 124.416 32.724 124.041 32.9413C123.666 33.1585 123.371 33.4673 123.156 33.8678C122.941 34.2682 122.834 34.724 122.834 35.235C122.834 35.7462 122.941 36.202 123.156 36.6022C123.371 37.0027 123.666 37.3114 124.041 37.5287C124.416 37.746 124.839 37.8546 125.311 37.8546Z" fill="white"/>
<path d="M138.43 31.8743V38.5958H137.608V33.2801L134.916 37.7779H134.512L131.82 33.2672V38.5958H130.998V31.8743H131.908L134.727 36.7173L137.595 31.8743H138.43Z" fill="white"/>
<path d="M143.662 31.8232C144.53 31.8232 145.195 32.0427 145.659 32.4813C146.122 32.9201 146.354 33.5695 146.354 34.43V38.5957H145.494V37.548C145.292 37.8972 144.995 38.1698 144.604 38.3658C144.212 38.5617 143.746 38.6596 143.207 38.6596C142.465 38.6596 141.876 38.4807 141.438 38.1228C140.999 37.7652 140.78 37.2924 140.78 36.7046C140.78 36.1338 140.985 35.6738 141.393 35.3245C141.802 34.9753 142.453 34.8007 143.346 34.8007H145.457V34.3916C145.457 33.8125 145.297 33.3715 144.976 33.0692C144.656 32.7667 144.189 32.6154 143.573 32.6154C143.152 32.6154 142.748 32.6857 142.36 32.8262C141.973 32.9668 141.64 33.1607 141.362 33.4077L140.957 32.7304C141.294 32.4408 141.699 32.2173 142.171 32.0596C142.642 31.9021 143.14 31.8232 143.662 31.8232ZM143.346 37.9439C143.851 37.9439 144.285 37.8269 144.648 37.5925C145.01 37.3584 145.28 37.0198 145.457 36.5767V35.4777H143.371C142.234 35.4777 141.665 35.8782 141.665 36.6789C141.665 37.0708 141.813 37.3796 142.107 37.6054C142.402 37.8312 142.815 37.9439 143.346 37.9439Z" fill="white"/>
<path d="M153.81 32.6795H151.295V38.5958H150.398V32.6795H147.883V31.8743H153.81V32.6795Z" fill="white"/>
<path d="M161.014 35.5161H155.453C155.504 36.2146 155.769 36.779 156.249 37.2092C156.73 37.6395 157.336 37.8546 158.069 37.8546C158.482 37.8546 158.861 37.78 159.207 37.6309C159.552 37.482 159.851 37.2626 160.104 36.9729L160.61 37.5606C160.315 37.9184 159.946 38.191 159.504 38.3785C159.061 38.5659 158.575 38.6596 158.044 38.6596C157.361 38.6596 156.757 38.5126 156.23 38.2188C155.704 37.9249 155.293 37.5182 154.998 36.9984C154.703 36.4788 154.556 35.8911 154.556 35.235C154.556 34.5791 154.697 33.9912 154.979 33.4716C155.261 32.952 155.649 32.5472 156.142 32.2578C156.635 31.9681 157.189 31.8232 157.804 31.8232C158.419 31.8232 158.971 31.9681 159.459 32.2578C159.948 32.5472 160.331 32.9498 160.61 33.4652C160.888 33.9807 161.027 34.5705 161.027 35.235L161.014 35.5161ZM157.804 32.6027C157.163 32.6027 156.626 32.8093 156.192 33.2224C155.758 33.6357 155.512 34.1744 155.453 34.8388H160.167C160.108 34.1744 159.862 33.6357 159.428 33.2224C158.994 32.8093 158.452 32.6027 157.804 32.6027Z" fill="white"/>
<path d="M166.828 31.8232C167.452 31.8232 168.016 31.9659 168.522 32.2513C169.027 32.5367 169.424 32.9391 169.71 33.4589C169.997 33.9785 170.14 34.5705 170.14 35.235C170.14 35.908 169.997 36.5043 169.71 37.0241C169.424 37.5437 169.03 37.9461 168.528 38.2315C168.027 38.5169 167.46 38.6596 166.828 38.6596C166.289 38.6596 165.803 38.5467 165.369 38.321C164.935 38.0952 164.579 37.7652 164.301 37.3307V41.0748H163.403V31.8742H164.263V33.2033C164.532 32.7602 164.888 32.4195 165.331 32.1811C165.773 31.9424 166.272 31.8232 166.828 31.8232ZM166.765 37.8546C167.229 37.8546 167.65 37.746 168.029 37.5287C168.408 37.3114 168.705 37.0027 168.92 36.6022C169.135 36.202 169.242 35.7462 169.242 35.235C169.242 34.724 169.135 34.2704 168.92 33.8742C168.705 33.478 168.408 33.1693 168.029 32.9477C167.65 32.7262 167.229 32.6154 166.765 32.6154C166.293 32.6154 165.87 32.7262 165.495 32.9477C165.12 33.1693 164.825 33.478 164.61 33.8742C164.396 34.2704 164.288 34.724 164.288 35.235C164.288 35.7462 164.396 36.202 164.61 36.6022C164.825 37.0027 165.12 37.3114 165.495 37.5287C165.87 37.746 166.293 37.8546 166.765 37.8546Z" fill="white"/>
<path d="M172.465 31.8743H173.362V37.2157L177.798 31.8743H178.595V38.5958H177.697V33.2543L173.274 38.5958H172.465V31.8743Z" fill="white"/>
<path d="M183.839 31.8232C184.707 31.8232 185.372 32.0427 185.836 32.4813C186.299 32.9201 186.531 33.5695 186.531 34.43V38.5957H185.671V37.548C185.469 37.8972 185.172 38.1698 184.78 38.3658C184.388 38.5617 183.923 38.6596 183.384 38.6596C182.642 38.6596 182.052 38.4807 181.614 38.1228C181.176 37.7652 180.957 37.2924 180.957 36.7046C180.957 36.1338 181.162 35.6738 181.57 35.3245C181.979 34.9753 182.63 34.8007 183.523 34.8007H185.633V34.3916C185.633 33.8125 185.473 33.3715 185.153 33.0692C184.833 32.7667 184.365 32.6154 183.75 32.6154C183.329 32.6154 182.925 32.6857 182.537 32.8262C182.149 32.9668 181.817 33.1607 181.539 33.4077L181.134 32.7304C181.471 32.4408 181.875 32.2173 182.347 32.0596C182.819 31.9021 183.316 31.8232 183.839 31.8232ZM183.523 37.9439C184.028 37.9439 184.462 37.8269 184.825 37.5925C185.187 37.3584 185.457 37.0198 185.633 36.5767V35.4777H183.548C182.411 35.4777 181.842 35.8782 181.842 36.6789C181.842 37.0708 181.989 37.3796 182.284 37.6054C182.579 37.8312 182.992 37.9439 183.523 37.9439Z" fill="white"/>
<path d="M194.746 31.8743V38.5958H193.848V32.6795H190.663L190.575 34.3407C190.507 35.7377 190.347 36.8111 190.095 37.5606C189.842 38.3104 189.391 38.6851 188.742 38.6851C188.565 38.6851 188.35 38.651 188.098 38.5829L188.161 37.8034C188.313 37.8375 188.418 37.8546 188.477 37.8546C188.822 37.8546 189.084 37.6928 189.26 37.3691C189.437 37.0453 189.555 36.6449 189.614 36.1679C189.673 35.6908 189.724 35.0604 189.766 34.2766L189.88 31.8743H194.746Z" fill="white"/>
<path d="M200.433 38.6596C199.793 38.6596 199.216 38.5126 198.701 38.2188C198.188 37.9249 197.783 37.5182 197.488 36.9984C197.193 36.4788 197.046 35.8911 197.046 35.235C197.046 34.5791 197.193 33.9912 197.488 33.4716C197.783 32.952 198.188 32.5472 198.701 32.2578C199.216 31.9681 199.793 31.8232 200.433 31.8232C201.073 31.8232 201.651 31.9681 202.164 32.2578C202.679 32.5472 203.081 32.952 203.372 33.4716C203.662 33.9912 203.808 34.5791 203.808 35.235C203.808 35.8911 203.662 36.4788 203.372 36.9984C203.081 37.5182 202.679 37.9249 202.164 38.2188C201.651 38.5126 201.073 38.6596 200.433 38.6596ZM200.433 37.8546C200.905 37.8546 201.328 37.746 201.703 37.5287C202.078 37.3114 202.371 37.0027 202.581 36.6022C202.792 36.202 202.897 35.7462 202.897 35.235C202.897 34.724 202.792 34.2682 202.581 33.8678C202.371 33.4673 202.078 33.1585 201.703 32.9413C201.328 32.724 200.905 32.6154 200.433 32.6154C199.961 32.6154 199.538 32.724 199.163 32.9413C198.788 33.1585 198.493 33.4673 198.278 33.8678C198.063 34.2682 197.956 34.724 197.956 35.235C197.956 35.7462 198.063 36.202 198.278 36.6022C198.493 37.0027 198.788 37.3114 199.163 37.5287C199.538 37.746 199.961 37.8546 200.433 37.8546Z" fill="white"/>
<path d="M210.355 35.12C211.257 35.3329 211.707 35.8825 211.707 36.7685C211.707 37.3562 211.493 37.8077 211.063 38.1229C210.633 38.4381 209.993 38.5958 209.142 38.5958H206.121V31.8743H209.053C209.812 31.8743 210.406 32.0234 210.835 32.3217C211.265 32.6197 211.48 33.0457 211.48 33.5995C211.48 33.9657 211.381 34.2787 211.183 34.5387C210.985 34.7986 210.709 34.9923 210.355 35.12ZM206.993 34.8646H208.99C209.504 34.8646 209.898 34.7664 210.172 34.5706C210.446 34.3747 210.583 34.0893 210.583 33.7144C210.583 33.3396 210.446 33.0585 210.172 32.871C209.898 32.6835 209.504 32.5899 208.99 32.5899H206.993V34.8646ZM209.104 37.8801C209.677 37.8801 210.106 37.7865 210.393 37.599C210.68 37.4117 210.823 37.1178 210.823 36.7173C210.823 36.3171 210.692 36.0209 210.431 35.8292C210.17 35.6376 209.757 35.5418 209.192 35.5418H206.993V37.8801H209.104Z" fill="white"/>
<path fill-rule="evenodd" clip-rule="evenodd" d="M4.37263 39.7982C1.53755 35.5742 0.0390625 30.6058 0.0390625 25.5001C0.0390625 20.3942 1.53755 15.4258 4.37263 11.2018C4.51737 10.9858 4.77401 10.8945 5.02047 10.971C5.26715 11.0477 5.42884 11.2691 5.42884 11.5298V39.4702C5.42884 39.7309 5.26715 39.9523 5.02047 40.029C4.77401 40.1055 4.51737 40.0142 4.37263 39.7982ZM11.1183 4.38129C15.2963 1.51507 20.2101 0 25.2602 0C30.3102 0 35.2243 1.51507 39.4021 4.38129C39.6157 4.52763 39.706 4.78732 39.6301 5.03651C39.5544 5.2857 39.3355 5.44919 39.0776 5.44919H11.4427C11.1848 5.44919 10.9661 5.2857 10.8903 5.03651C10.8146 4.78732 10.9049 4.52763 11.1183 4.38129ZM45.0917 39.4702V11.5298C45.0917 11.2691 45.2534 11.0477 45.4999 10.971C45.7463 10.8945 46.0032 10.9858 46.1479 11.2018C48.9828 15.4258 50.4813 20.3942 50.4813 25.5001C50.4813 30.6058 48.9828 35.5742 46.1479 39.7982C46.0032 40.0142 45.7463 40.1055 45.4999 40.029C45.2534 39.9523 45.0917 39.7309 45.0917 39.4702ZM39.4021 46.6187C35.2243 49.4849 30.3102 51 25.2602 51C20.2101 51 15.2963 49.4849 11.1183 46.6187C10.9049 46.4724 10.8146 46.2127 10.8903 45.9635C10.9661 45.7143 11.1848 45.5508 11.4427 45.5508H39.0776C39.3355 45.5508 39.5544 45.7143 39.6301 45.9635C39.706 46.2127 39.6157 46.4724 39.4021 46.6187Z" fill="white"/>
<path d="M14.7324 34.4689V16.6007C14.7324 16.2086 14.8632 15.8754 15.1298 15.611C15.3964 15.3414 15.7113 15.2092 16.0796 15.2092H24.0169C28.1262 15.2092 31.1111 16.0371 32.9818 17.6981C34.8522 19.3589 35.7874 21.9605 35.7874 25.5079C35.7874 29.0501 34.8522 31.6517 32.9818 33.3078C31.1111 34.9638 28.1262 35.7917 24.0169 35.7917H16.0796C15.7113 35.7917 15.3964 35.6643 15.1298 35.4095C14.8632 35.1597 14.7324 34.8462 14.7324 34.4689ZM20.0821 31.7301H23.8618C26.4059 31.7301 28.1406 31.2598 29.0566 30.3239C29.9725 29.3833 30.4328 27.7812 30.4328 25.5079C30.4328 23.2345 29.9725 21.6273 29.0566 20.6818C28.1406 19.7411 26.4059 19.2708 23.8618 19.2708H20.0821V31.7301Z" fill="white"/>
</g>
<defs>
<clipPath id="clip0_610_5198">
<rect width="212" height="51" fill="white"/>
</clipPath>
</defs>
</svg>
