<svg width="164" height="46" viewBox="0 0 164 46" fill="none" xmlns="http://www.w3.org/2000/svg">
<rect width="164" height="46" rx="10" fill="url(#paint0_linear_636_4026)"/>
<g clip-path="url(#clip0_636_4026)">
<path d="M53.7217 20.8328V13.9682C53.7217 13.8176 53.7708 13.6896 53.8709 13.588C53.9708 13.4845 54.0891 13.4337 54.2273 13.4337H57.2061C58.7481 13.4337 59.8684 13.7518 60.5704 14.3899C61.2723 15.028 61.6234 16.0274 61.6234 17.3901C61.6234 18.7511 61.2723 19.7505 60.5704 20.3868C59.8684 21.023 58.7481 21.341 57.2061 21.341H54.2273C54.0891 21.341 53.9708 21.2921 53.8709 21.1942C53.7708 21.0983 53.7217 20.9778 53.7217 20.8328ZM55.7295 19.7806H57.1479C58.1026 19.7806 58.7536 19.6 59.0974 19.2405C59.4411 18.879 59.6139 18.2636 59.6139 17.3901C59.6139 16.5168 59.4411 15.8995 59.0974 15.5362C58.7536 15.1748 58.1026 14.9941 57.1479 14.9941H55.7295V19.7806Z" fill="white"/>
<path d="M63.3447 20.8121V13.9457C63.3447 13.8026 63.3939 13.6822 63.4939 13.5823C63.5939 13.4827 63.7121 13.4337 63.8504 13.4337H69.9935C70.1316 13.4337 70.2498 13.4845 70.348 13.588C70.4462 13.6896 70.4954 13.8139 70.4954 13.957V14.4764C70.4954 14.6195 70.4462 14.7418 70.348 14.8416C70.2498 14.9433 70.1316 14.9941 69.9935 14.9941H65.3525V16.5978H69.3497C69.4878 16.5978 69.6061 16.6485 69.7043 16.7502C69.8006 16.8518 69.8497 16.9742 69.8497 17.1173V17.6348C69.8497 17.7779 69.8006 17.9002 69.7043 18.002C69.6061 18.1036 69.4878 18.1543 69.3497 18.1543H65.3525V19.7806H69.9825C70.1188 19.7806 70.2335 19.8296 70.3298 19.9294C70.4244 20.0291 70.4735 20.1495 70.4735 20.2926V20.8235C70.4735 20.9664 70.4244 21.0888 70.3243 21.1885C70.2244 21.2901 70.1061 21.341 69.9679 21.341H63.8504C63.7121 21.341 63.5939 21.2901 63.4939 21.1885C63.3939 21.0888 63.3447 20.9627 63.3447 20.8121Z" fill="white"/>
<path d="M72.1074 20.8234V13.9569C72.1074 13.8138 72.1547 13.6896 72.2512 13.588C72.3476 13.4844 72.4639 13.4337 72.6021 13.4337H76.6684C78.8162 13.4337 79.8908 14.4575 79.8908 16.5073C79.8908 18.5572 78.8162 19.581 76.6684 19.581H74.1152V20.8234C74.1152 20.9664 74.0679 21.0888 73.9697 21.1885C73.8715 21.2901 73.7533 21.341 73.615 21.341H72.6131C72.4748 21.341 72.3566 21.2901 72.2566 21.1885C72.1566 21.0888 72.1074 20.9664 72.1074 20.8234ZM74.1152 18.0206H76.061C76.6574 18.0206 77.1103 17.9172 77.4195 17.7101C77.7286 17.5011 77.8832 17.1021 77.8832 16.5073C77.8832 15.9144 77.7286 15.5136 77.4195 15.3046C77.1103 15.0975 76.6574 14.9941 76.061 14.9941H74.1152V18.0206Z" fill="white"/>
<path d="M81.502 20.8121V13.9457C81.502 13.8026 81.5511 13.6822 81.6512 13.5823C81.7511 13.4827 81.8694 13.4337 82.0076 13.4337H88.1507C88.2888 13.4337 88.4071 13.4845 88.5053 13.588C88.6034 13.6896 88.6526 13.8139 88.6526 13.957V14.4764C88.6526 14.6195 88.6034 14.7418 88.5053 14.8416C88.4071 14.9433 88.2888 14.9941 88.1507 14.9941H83.5097V16.5978H87.5069C87.645 16.5978 87.7633 16.6485 87.8615 16.7502C87.9578 16.8518 88.007 16.9742 88.007 17.1173V17.6348C88.007 17.7779 87.9578 17.9002 87.8615 18.002C87.7633 18.1036 87.645 18.1543 87.5069 18.1543H83.5097V19.7806H88.1397C88.2761 19.7806 88.3907 19.8296 88.487 19.9294C88.5816 20.0291 88.6308 20.1495 88.6308 20.2926V20.8235C88.6308 20.9664 88.5816 21.0888 88.4815 21.1885C88.3816 21.2901 88.2633 21.341 88.1251 21.341H82.0076C81.8694 21.341 81.7511 21.2901 81.6512 21.1885C81.5511 21.0888 81.502 20.9627 81.502 20.8121Z" fill="white"/>
<path d="M90.2646 13.957C90.2646 13.8139 90.3138 13.6896 90.4139 13.588C90.5138 13.4845 90.6321 13.4337 90.7703 13.4337H95.1021C96.1641 13.4337 96.9479 13.75 97.4516 14.3823C97.7317 14.7306 97.8735 15.1767 97.8735 15.7187C97.8735 16.2608 97.6335 16.7352 97.1534 17.1399C97.8354 17.5181 98.1772 18.1054 98.1772 18.9036C98.1772 19.7016 97.9045 20.3077 97.3589 20.7199C96.8133 21.134 96.1441 21.341 95.353 21.341H90.7703C90.6321 21.341 90.5138 21.2901 90.4139 21.1885C90.3138 21.0888 90.2646 20.9664 90.2646 20.8235V13.957ZM92.2724 19.8522H95.3203C95.5949 19.8522 95.804 19.7674 95.9495 19.598C96.095 19.4286 96.1677 19.1972 96.1677 18.9036C96.1677 18.6099 96.095 18.3784 95.9495 18.209C95.804 18.0395 95.5949 17.9548 95.3203 17.9548H92.2724V19.8522ZM92.2724 16.5055H95.1238C95.3475 16.5055 95.5275 16.4359 95.6622 16.2985C95.7968 16.1611 95.864 15.9673 95.864 15.7187C95.864 15.4702 95.7968 15.2764 95.6622 15.1371C95.5275 14.9979 95.3475 14.9281 95.1238 14.9281H92.2724V16.5055Z" fill="white"/>
<path d="M99.4736 21.0267C99.4736 20.9684 99.4955 20.9006 99.5428 20.8235L101.012 18.3143C100.008 17.8607 99.5063 17.0928 99.5099 16.0086C99.5099 15.188 99.7845 14.5537 100.334 14.1057C100.883 13.6576 101.57 13.4337 102.398 13.4337H106.569C106.7 13.4337 106.813 13.4827 106.908 13.5823C107.002 13.6822 107.05 13.8026 107.05 13.9457V20.8328C107.05 20.9778 107.001 21.0983 106.902 21.1942C106.804 21.2921 106.686 21.341 106.548 21.341H105.542C105.402 21.341 105.284 21.2901 105.187 21.1885C105.089 21.0888 105.04 20.9664 105.04 20.8235V18.5402H103.132L101.854 20.8328C101.674 21.1716 101.416 21.341 101.081 21.341H99.7391C99.5608 21.341 99.4736 21.2357 99.4736 21.0267ZM102.398 14.9941C101.809 14.9941 101.514 15.3179 101.514 15.9653C101.514 16.611 101.809 16.9347 102.398 16.9347H105.04V14.9941H102.398Z" fill="white"/>
<path d="M109.205 20.8235V13.957C109.205 13.8139 109.254 13.6896 109.354 13.588C109.454 13.4845 109.573 13.4337 109.711 13.4337H110.713C110.851 13.4337 110.969 13.4827 111.067 13.5823C111.166 13.6822 111.213 13.8026 111.213 13.9457V19.7806H113.548V13.9457C113.548 13.8026 113.597 13.6822 113.697 13.5823C113.795 13.4827 113.915 13.4337 114.053 13.4337H115.055C115.194 13.4337 115.312 13.4845 115.41 13.588C115.506 13.6896 115.556 13.8139 115.556 13.957V19.7806H117.894V13.9457C117.894 13.8026 117.943 13.6822 118.041 13.5823C118.14 13.4827 118.256 13.4337 118.396 13.4337H119.396C119.536 13.4337 119.655 13.4845 119.751 13.588C119.849 13.6896 119.898 13.8139 119.898 13.957V20.8235C119.898 20.9664 119.849 21.0888 119.751 21.1885C119.655 21.2901 119.536 21.341 119.396 21.341H109.711C109.573 21.341 109.454 21.2901 109.354 21.1885C109.254 21.0888 109.205 20.9664 109.205 20.8235Z" fill="white"/>
<path d="M129.966 21.0981C129.966 21.2599 129.873 21.3409 129.687 21.3409H128.467C128.329 21.3409 128.18 21.29 128.02 21.1884C127.86 21.0887 127.736 20.9663 127.647 20.8233L126.711 19.2836C126.487 18.9089 126.26 18.6267 126.032 18.4366C125.805 18.2483 125.532 18.1542 125.212 18.1542H124.066V20.8326C124.066 20.9776 124.019 21.0981 123.921 21.194C123.823 21.2919 123.704 21.3409 123.566 21.3409H122.564C122.426 21.3409 122.308 21.2882 122.208 21.1846C122.108 21.0792 122.059 20.955 122.059 20.8119V13.9568C122.059 13.8137 122.108 13.6895 122.208 13.5822C122.308 13.475 122.426 13.4222 122.564 13.4222H123.566C123.704 13.4222 123.823 13.475 123.921 13.5822C124.019 13.6895 124.066 13.8137 124.066 13.9568V16.5976H125.212C125.525 16.5976 125.799 16.511 126.036 16.3341C126.272 16.1572 126.496 15.873 126.711 15.4795L127.536 13.9568C127.723 13.6048 127.98 13.4261 128.304 13.4222H129.533C129.704 13.4222 129.789 13.4994 129.789 13.6537C129.789 13.7384 129.758 13.84 129.698 13.9568L128.542 16.1232C128.376 16.4394 128.189 16.7011 127.98 16.9082C127.772 17.1134 127.502 17.2583 127.169 17.343C127.402 17.3937 127.643 17.5462 127.891 17.8004C128.136 18.0545 128.355 18.3293 128.542 18.6286L129.875 20.8233C129.935 20.9287 129.966 21.0209 129.966 21.0981Z" fill="white"/>
<path d="M131.365 20.8235V13.957C131.365 13.8064 131.413 13.6822 131.509 13.5823C131.605 13.4827 131.725 13.4337 131.871 13.4337H132.809C132.947 13.4337 133.066 13.4827 133.164 13.5823C133.26 13.6822 133.309 13.8026 133.309 13.9457V19.4663L136.341 13.957C136.423 13.8139 136.535 13.6896 136.677 13.588C136.819 13.4845 136.95 13.4337 137.072 13.4337H138.643C138.781 13.4337 138.9 13.4845 138.994 13.588C139.091 13.6896 139.138 13.8139 139.138 13.957V20.8235C139.138 20.9664 139.089 21.0888 138.989 21.1885C138.89 21.2901 138.77 21.341 138.632 21.341H137.694C137.556 21.341 137.437 21.2901 137.341 21.1885C137.243 21.0888 137.194 20.9664 137.194 20.8235V15.7055L134.413 20.8235C134.331 20.9664 134.215 21.0888 134.066 21.1885C133.917 21.2901 133.773 21.341 133.635 21.341H131.871C131.733 21.341 131.614 21.2901 131.514 21.1885C131.414 21.0888 131.365 20.9664 131.365 20.8235Z" fill="white"/>
<path d="M141.292 20.8234V13.9568C141.292 13.8138 141.341 13.6895 141.441 13.5879C141.541 13.4843 141.663 13.4336 141.809 13.4336H142.8C142.938 13.4336 143.056 13.4843 143.154 13.5879C143.252 13.6895 143.3 13.8138 143.3 13.9568V16.4395H146.966V13.9568C146.966 13.8138 147.015 13.6895 147.115 13.5879C147.215 13.4843 147.333 13.4336 147.472 13.4336H148.463C148.608 13.4336 148.73 13.4843 148.828 13.5879C148.926 13.6895 148.975 13.8138 148.975 13.9568V20.8234C148.975 20.9663 148.924 21.0887 148.823 21.1884C148.721 21.29 148.601 21.3409 148.463 21.3409H147.472C147.333 21.3409 147.215 21.292 147.115 21.1941C147.015 21.0981 146.966 20.9777 146.966 20.8326V17.9999H143.3V20.8326C143.3 20.9777 143.252 21.0981 143.154 21.1941C143.056 21.292 142.938 21.3409 142.8 21.3409H141.809C141.67 21.3409 141.55 21.29 141.447 21.1884C141.343 21.0887 141.292 20.9663 141.292 20.8234Z" fill="white"/>
<path d="M56.0214 27.7323C56.4103 27.7323 56.7577 27.8218 57.064 28.0009C57.3702 28.1801 57.6085 28.4309 57.7788 28.7534C57.9494 29.0758 58.0346 29.4438 58.0346 29.8572C58.0346 30.2816 57.9453 30.6579 57.7669 30.9858C57.5885 31.3138 57.3395 31.5688 57.02 31.7507C56.7004 31.9326 56.333 32.0235 55.9176 32.0235C55.2199 32.0235 54.6794 31.7699 54.2959 31.2628C53.9125 30.7556 53.7207 30.0556 53.7207 29.1626C53.7207 28.2311 53.8926 27.5172 54.236 27.0212C54.5795 26.5251 55.1161 26.1888 55.8457 26.0124L57.731 25.566L57.8268 26.1034L56.0534 26.5251C55.4516 26.6629 55.0096 26.9068 54.7273 27.2569C54.4451 27.6068 54.2907 28.1236 54.264 28.8072C54.4344 28.4708 54.6713 28.2077 54.975 28.0174C55.2785 27.8274 55.6273 27.7323 56.0214 27.7323ZM55.9336 31.5356C56.2265 31.5356 56.4888 31.4653 56.7204 31.3248C56.9521 31.1843 57.1332 30.9872 57.2637 30.7336C57.3941 30.48 57.4594 30.1934 57.4594 29.8737C57.4594 29.554 57.3955 29.2729 57.2677 29.0304C57.1398 28.7877 56.9601 28.5991 56.7284 28.464C56.4968 28.329 56.2319 28.2615 55.9336 28.2615C55.6354 28.2615 55.3704 28.329 55.1387 28.464C54.9071 28.5991 54.726 28.7877 54.5955 29.0304C54.4651 29.2729 54.3998 29.554 54.3998 29.8737C54.3998 30.1934 54.4651 30.48 54.5955 30.7336C54.726 30.9872 54.9084 31.1843 55.1427 31.3248C55.377 31.4653 55.6406 31.5356 55.9336 31.5356Z" fill="white"/>
<path d="M60.9181 27.5916C61.4667 27.5916 61.8874 27.7336 62.1803 28.0174C62.4732 28.3013 62.6197 28.7215 62.6197 29.2783V31.9738H62.0764V31.2959C61.9486 31.5218 61.7609 31.6982 61.5133 31.8251C61.2656 31.9518 60.9714 32.0151 60.6305 32.0151C60.1619 32.0151 59.7891 31.8994 59.5122 31.6678C59.2352 31.4364 59.0967 31.1305 59.0967 30.7502C59.0967 30.3808 59.2259 30.0832 59.4842 29.8572C59.7425 29.6312 60.1539 29.5182 60.7184 29.5182H62.0526V29.2535C62.0526 28.8788 61.9513 28.5934 61.7489 28.3978C61.5465 28.2021 61.251 28.1042 60.8621 28.1042C60.596 28.1042 60.3403 28.1496 60.0953 28.2406C59.8503 28.3315 59.64 28.457 59.4642 28.6169L59.2085 28.1786C59.4216 27.9912 59.6772 27.8466 59.9755 27.7445C60.2737 27.6426 60.5879 27.5916 60.9181 27.5916ZM60.7184 31.5521C61.0379 31.5521 61.3122 31.4764 61.5413 31.3247C61.7702 31.1732 61.9407 30.9541 62.0526 30.6674V29.9563H60.7344C60.0154 29.9563 59.6559 30.2154 59.6559 30.7335C59.6559 30.9871 59.7491 31.1869 59.9355 31.333C60.1219 31.4791 60.3829 31.5521 60.7184 31.5521Z" fill="white"/>
<path d="M66.3349 29.7083C66.6331 29.78 66.8635 29.9041 67.0259 30.0805C67.1883 30.2568 67.2695 30.4718 67.2695 30.7254C67.2695 30.979 67.1857 31.205 67.018 31.4034C66.8501 31.6018 66.6225 31.7548 66.3349 31.8623C66.0474 31.9697 65.7304 32.0235 65.3843 32.0235C65.0808 32.0235 64.7825 31.9781 64.4895 31.8871C64.1967 31.7962 63.941 31.6625 63.7227 31.486L63.9143 31.0479C64.1062 31.1967 64.3299 31.3124 64.5854 31.3951C64.841 31.4778 65.0994 31.5191 65.3603 31.5191C65.7491 31.5191 66.0673 31.4433 66.315 31.2918C66.5625 31.1402 66.6864 30.9348 66.6864 30.6758C66.6864 30.4443 66.5852 30.2637 66.3829 30.1342C66.1805 30.0046 65.9035 29.9399 65.552 29.9399H64.8331V29.5099H65.5201C65.8342 29.5099 66.0873 29.448 66.279 29.3239C66.4708 29.1998 66.5665 29.0332 66.5665 28.8237C66.5665 28.5921 66.4587 28.4102 66.2431 28.278C66.0274 28.1457 65.7464 28.0796 65.4002 28.0796C64.9476 28.0796 64.5002 28.198 64.0582 28.4351L63.8984 27.9803C64.399 27.7102 64.9183 27.5752 65.4562 27.5752C65.7757 27.5752 66.0646 27.6233 66.3229 27.7198C66.5813 27.8163 66.7835 27.9527 66.9301 28.1291C67.0765 28.3056 67.1498 28.5095 67.1498 28.741C67.1498 28.9615 67.0765 29.1571 66.9301 29.328C66.7835 29.4989 66.5852 29.6257 66.3349 29.7083Z" fill="white"/>
<path d="M70.2493 27.5916C70.7978 27.5916 71.2186 27.7336 71.5115 28.0174C71.8043 28.3013 71.9509 28.7215 71.9509 29.2783V31.9738H71.4076V31.2959C71.2798 31.5218 71.0921 31.6982 70.8445 31.8251C70.5968 31.9518 70.3026 32.0151 69.9617 32.0151C69.493 32.0151 69.1203 31.8994 68.8434 31.6678C68.5662 31.4364 68.4277 31.1305 68.4277 30.7502C68.4277 30.3808 68.557 30.0832 68.8152 29.8572C69.0736 29.6312 69.4851 29.5182 70.0496 29.5182H71.3837V29.2535C71.3837 28.8788 71.2825 28.5934 71.0801 28.3978C70.8777 28.2021 70.5822 28.1042 70.1933 28.1042C69.9272 28.1042 69.6715 28.1496 69.4265 28.2406C69.1815 28.3315 68.9712 28.457 68.7953 28.6169L68.5396 28.1786C68.7527 27.9912 69.0084 27.8466 69.3067 27.7445C69.6049 27.6426 69.9191 27.5916 70.2493 27.5916ZM70.0496 31.5521C70.3691 31.5521 70.6434 31.4764 70.8725 31.3247C71.1014 31.1732 71.2719 30.9541 71.3837 30.6674V29.9563H70.0655C69.3466 29.9563 68.9871 30.2154 68.9871 30.7335C68.9871 30.9871 69.0803 31.1869 69.2667 31.333C69.4531 31.4791 69.7141 31.5521 70.0496 31.5521Z" fill="white"/>
<path d="M79.5715 27.6246V31.9738H79.0042V28.1457H76.3681V31.9738H75.8008V27.6246H79.5715Z" fill="white"/>
<path d="M81.4326 27.6246H81.9999V31.0808L84.8039 27.6246H85.3071V31.9738H84.74V28.5176L81.9439 31.9738H81.4326V27.6246Z" fill="white"/>
<path d="M90.6112 27.6246V31.9738H90.0439V28.1457H88.0309L87.9749 29.2205C87.9323 30.1245 87.8312 30.8191 87.6714 31.3041C87.5116 31.7892 87.2267 32.0316 86.8167 32.0316C86.7048 32.0316 86.569 32.0096 86.4092 31.9655L86.4491 31.4611C86.545 31.4832 86.6116 31.4943 86.6488 31.4943C86.8672 31.4943 87.0323 31.3896 87.1442 31.1801C87.256 30.9706 87.3305 30.7115 87.3679 30.4029C87.4051 30.0941 87.4371 29.6862 87.4636 29.1791L87.5356 27.6246H90.6112Z" fill="white"/>
<path d="M94.2063 32.0151C93.8016 32.0151 93.4368 31.92 93.1118 31.7299C92.787 31.5397 92.5314 31.2766 92.345 30.9402C92.1587 30.604 92.0654 30.2237 92.0654 29.7992C92.0654 29.3748 92.1587 28.9944 92.345 28.6582C92.5314 28.322 92.787 28.0601 93.1118 27.8728C93.4368 27.6853 93.8016 27.5916 94.2063 27.5916C94.6111 27.5916 94.9759 27.6853 95.3007 27.8728C95.6257 28.0601 95.8799 28.322 96.0637 28.6582C96.2473 28.9944 96.3392 29.3748 96.3392 29.7992C96.3392 30.2237 96.2473 30.604 96.0637 30.9402C95.8799 31.2766 95.6257 31.5397 95.3007 31.7299C94.9759 31.92 94.6111 32.0151 94.2063 32.0151ZM94.2063 31.4942C94.5045 31.4942 94.7722 31.424 95.0092 31.2834C95.2462 31.1428 95.4312 30.943 95.5643 30.6839C95.6975 30.4249 95.7641 30.13 95.7641 29.7992C95.7641 29.4686 95.6975 29.1737 95.5643 28.9145C95.4312 28.6554 95.2462 28.4556 95.0092 28.315C94.7722 28.1745 94.5045 28.1042 94.2063 28.1042C93.908 28.1042 93.6405 28.1745 93.4035 28.315C93.1665 28.4556 92.98 28.6554 92.8443 28.9145C92.7085 29.1737 92.6406 29.4686 92.6406 29.7992C92.6406 30.13 92.7085 30.4249 92.8443 30.6839C92.98 30.943 93.1665 31.1428 93.4035 31.2834C93.6405 31.424 93.908 31.4942 94.2063 31.4942Z" fill="white"/>
<path d="M102.498 27.6246V31.9738H101.979V28.5343L100.277 31.4446H100.022L98.3201 28.5259V31.9738H97.8008V27.6246H98.376L100.157 30.7584L101.971 27.6246H102.498Z" fill="white"/>
<path d="M105.805 27.5916C106.353 27.5916 106.774 27.7336 107.067 28.0174C107.36 28.3013 107.506 28.7215 107.506 29.2783V31.9738H106.963V31.2959C106.835 31.5218 106.648 31.6982 106.4 31.8251C106.152 31.9518 105.858 32.0151 105.517 32.0151C105.049 32.0151 104.676 31.8994 104.399 31.6678C104.122 31.4364 103.983 31.1305 103.983 30.7502C103.983 30.3808 104.113 30.0832 104.371 29.8572C104.629 29.6312 105.041 29.5182 105.605 29.5182H106.939V29.2535C106.939 28.8788 106.838 28.5934 106.636 28.3978C106.433 28.2021 106.138 28.1042 105.749 28.1042C105.483 28.1042 105.227 28.1496 104.982 28.2406C104.737 28.3315 104.527 28.457 104.351 28.6169L104.095 28.1786C104.308 27.9912 104.564 27.8466 104.862 27.7445C105.16 27.6426 105.475 27.5916 105.805 27.5916ZM105.605 31.5521C105.925 31.5521 106.199 31.4764 106.428 31.3247C106.657 31.1732 106.827 30.9541 106.939 30.6674V29.9563H105.621C104.902 29.9563 104.543 30.2154 104.543 30.7335C104.543 30.9871 104.636 31.1869 104.822 31.333C105.009 31.4791 105.27 31.5521 105.605 31.5521Z" fill="white"/>
<path d="M112.219 28.1457H110.63V31.9738H110.062V28.1457H108.473V27.6246H112.219V28.1457Z" fill="white"/>
<path d="M116.773 29.9811H113.258C113.29 30.4331 113.457 30.7983 113.761 31.0767C114.064 31.3551 114.448 31.4942 114.911 31.4942C115.172 31.4942 115.412 31.446 115.63 31.3495C115.849 31.2532 116.038 31.1112 116.197 30.9237L116.517 31.304C116.331 31.5356 116.098 31.7119 115.818 31.8332C115.538 31.9545 115.231 32.0151 114.895 32.0151C114.464 32.0151 114.082 31.92 113.749 31.7299C113.416 31.5397 113.156 31.2766 112.97 30.9402C112.784 30.604 112.69 30.2237 112.69 29.7992C112.69 29.3748 112.78 28.9944 112.958 28.6582C113.136 28.322 113.381 28.0601 113.693 27.8728C114.004 27.6853 114.355 27.5916 114.743 27.5916C115.132 27.5916 115.481 27.6853 115.79 27.8728C116.099 28.0601 116.341 28.3206 116.517 28.654C116.693 28.9876 116.781 29.3693 116.781 29.7992L116.773 29.9811ZM114.743 28.096C114.339 28.096 113.999 28.2296 113.725 28.4969C113.451 28.7644 113.295 29.1129 113.258 29.5429H116.237C116.2 29.1129 116.044 28.7644 115.77 28.4969C115.496 28.2296 115.153 28.096 114.743 28.096Z" fill="white"/>
<path d="M120.448 27.5916C120.842 27.5916 121.199 27.684 121.519 27.8686C121.838 28.0533 122.088 28.3137 122.27 28.65C122.451 28.9862 122.541 29.3693 122.541 29.7992C122.541 30.2347 122.451 30.6205 122.27 30.9569C122.088 31.2931 121.839 31.5535 121.523 31.7381C121.206 31.9228 120.848 32.0151 120.448 32.0151C120.107 32.0151 119.8 31.9421 119.525 31.7961C119.251 31.6499 119.026 31.4364 118.85 31.1553V33.5779H118.283V27.6246H118.827V28.4846C118.997 28.1979 119.222 27.9775 119.501 27.8231C119.781 27.6687 120.097 27.5916 120.448 27.5916ZM120.408 31.4942C120.701 31.4942 120.967 31.424 121.207 31.2834C121.447 31.1428 121.634 30.943 121.77 30.6839C121.906 30.4249 121.974 30.13 121.974 29.7992C121.974 29.4686 121.906 29.175 121.77 28.9187C121.634 28.6623 121.447 28.4626 121.207 28.3192C120.967 28.1759 120.701 28.1042 120.408 28.1042C120.11 28.1042 119.842 28.1759 119.605 28.3192C119.368 28.4626 119.182 28.6623 119.046 28.9187C118.91 29.175 118.842 29.4686 118.842 29.7992C118.842 30.13 118.91 30.4249 119.046 30.6839C119.182 30.943 119.368 31.1428 119.605 31.2834C119.842 31.424 120.11 31.4942 120.408 31.4942Z" fill="white"/>
<path d="M124.011 27.6246H124.578V31.0808L127.382 27.6246H127.885V31.9738H127.318V28.5176L124.522 31.9738H124.011V27.6246Z" fill="white"/>
<path d="M131.199 27.5916C131.748 27.5916 132.169 27.7336 132.462 28.0174C132.754 28.3013 132.901 28.7215 132.901 29.2783V31.9738H132.358V31.2959C132.23 31.5218 132.042 31.6982 131.795 31.8251C131.547 31.9518 131.253 32.0151 130.912 32.0151C130.443 32.0151 130.07 31.8994 129.793 31.6678C129.516 31.4364 129.378 31.1305 129.378 30.7502C129.378 30.3808 129.507 30.0832 129.765 29.8572C130.024 29.6312 130.435 29.5182 131 29.5182H132.334V29.2535C132.334 28.8788 132.233 28.5934 132.03 28.3978C131.828 28.2021 131.532 28.1042 131.143 28.1042C130.877 28.1042 130.622 28.1496 130.377 28.2406C130.132 28.3315 129.921 28.457 129.745 28.6169L129.49 28.1786C129.703 27.9912 129.958 27.8466 130.257 27.7445C130.555 27.6426 130.869 27.5916 131.199 27.5916ZM131 31.5521C131.319 31.5521 131.593 31.4764 131.823 31.3247C132.051 31.1732 132.222 30.9541 132.334 30.6674V29.9563H131.016C130.297 29.9563 129.937 30.2154 129.937 30.7335C129.937 30.9871 130.03 31.1869 130.217 31.333C130.403 31.4791 130.664 31.5521 131 31.5521Z" fill="white"/>
<path d="M138.094 27.6246V31.9738H137.526V28.1457H135.513L135.457 29.2205C135.415 30.1245 135.314 30.8191 135.154 31.3041C134.994 31.7892 134.709 32.0316 134.299 32.0316C134.187 32.0316 134.051 32.0096 133.892 31.9655L133.932 31.4611C134.027 31.4832 134.094 31.4943 134.131 31.4943C134.35 31.4943 134.515 31.3896 134.627 31.1801C134.738 30.9706 134.813 30.7115 134.85 30.4029C134.888 30.0941 134.92 29.6862 134.946 29.1791L135.018 27.6246H138.094Z" fill="white"/>
<path d="M141.689 32.0151C141.284 32.0151 140.919 31.92 140.594 31.7299C140.269 31.5397 140.014 31.2766 139.827 30.9402C139.641 30.604 139.548 30.2237 139.548 29.7992C139.548 29.3748 139.641 28.9944 139.827 28.6582C140.014 28.322 140.269 28.0601 140.594 27.8728C140.919 27.6853 141.284 27.5916 141.689 27.5916C142.094 27.5916 142.458 27.6853 142.783 27.8728C143.108 28.0601 143.362 28.322 143.546 28.6582C143.73 28.9944 143.822 29.3748 143.822 29.7992C143.822 30.2237 143.73 30.604 143.546 30.9402C143.362 31.2766 143.108 31.5397 142.783 31.7299C142.458 31.92 142.094 32.0151 141.689 32.0151ZM141.689 31.4942C141.987 31.4942 142.255 31.424 142.492 31.2834C142.729 31.1428 142.914 30.943 143.047 30.6839C143.18 30.4249 143.246 30.13 143.246 29.7992C143.246 29.4686 143.18 29.1737 143.047 28.9145C142.914 28.6554 142.729 28.4556 142.492 28.315C142.255 28.1745 141.987 28.1042 141.689 28.1042C141.39 28.1042 141.123 28.1745 140.886 28.315C140.649 28.4556 140.462 28.6554 140.327 28.9145C140.191 29.1737 140.123 29.4686 140.123 29.7992C140.123 30.13 140.191 30.4249 140.327 30.6839C140.462 30.943 140.649 31.1428 140.886 31.2834C141.123 31.424 141.39 31.4942 141.689 31.4942Z" fill="white"/>
<path d="M147.96 29.7248C148.53 29.8626 148.815 30.2182 148.815 30.7915C148.815 31.1718 148.679 31.4639 148.408 31.6679C148.136 31.8718 147.731 31.9738 147.194 31.9738H145.284V27.6246H147.138C147.617 27.6246 147.992 27.7211 148.264 27.9141C148.536 28.107 148.671 28.3826 148.671 28.741C148.671 28.9779 148.609 29.1805 148.484 29.3486C148.358 29.5168 148.184 29.6422 147.96 29.7248ZM145.835 29.5595H147.098C147.423 29.5595 147.671 29.496 147.845 29.3693C148.018 29.2426 148.104 29.0579 148.104 28.8153C148.104 28.5728 148.018 28.3909 147.845 28.2696C147.671 28.1483 147.423 28.0877 147.098 28.0877H145.835V29.5595ZM147.17 31.5108C147.532 31.5108 147.803 31.4502 147.984 31.3289C148.165 31.2077 148.256 31.0175 148.256 30.7584C148.256 30.4994 148.173 30.3078 148.008 30.1837C147.843 30.0597 147.582 29.9978 147.225 29.9978H145.835V31.5108H147.17Z" fill="white"/>
<path fill-rule="evenodd" clip-rule="evenodd" d="M17.7636 32.7519C15.9716 30.0187 15.0244 26.8038 15.0244 23.5001C15.0244 20.1963 15.9716 16.9815 17.7636 14.2483C17.855 14.1085 18.0173 14.0495 18.173 14.0989C18.329 14.1486 18.4312 14.2918 18.4312 14.4605V32.5396C18.4312 32.7083 18.329 32.8515 18.173 32.9012C18.0173 32.9507 17.855 32.8916 17.7636 32.7519ZM22.0273 9.83501C24.6681 7.9804 27.774 7.00006 30.9661 7.00006C34.1581 7.00006 37.2641 7.9804 39.9048 9.83501C40.0398 9.92971 40.0969 10.0977 40.0489 10.259C40.0011 10.4202 39.8627 10.526 39.6997 10.526H22.2324C22.0694 10.526 21.9311 10.4202 21.8832 10.259C21.8354 10.0977 21.8924 9.92971 22.0273 9.83501ZM43.5011 32.5396V14.4605C43.5011 14.2918 43.6033 14.1486 43.7591 14.0989C43.9149 14.0495 44.0772 14.1085 44.1687 14.2483C45.9605 16.9815 46.9077 20.1963 46.9077 23.5001C46.9077 26.8038 45.9605 30.0187 44.1687 32.7519C44.0772 32.8916 43.9149 32.9507 43.7591 32.9012C43.6033 32.8515 43.5011 32.7083 43.5011 32.5396ZM39.9048 37.1651C37.2641 39.0197 34.1581 40.0001 30.9661 40.0001C27.774 40.0001 24.6681 39.0197 22.0273 37.1651C21.8924 37.0704 21.8354 36.9024 21.8832 36.7411C21.9311 36.5799 22.0694 36.4741 22.2324 36.4741H39.6997C39.8627 36.4741 40.0011 36.5799 40.0489 36.7411C40.0969 36.9024 40.0398 37.0704 39.9048 37.1651Z" fill="white"/>
<path d="M24.3115 29.3034V17.7417C24.3115 17.4879 24.3942 17.2723 24.5627 17.1013C24.7312 16.9269 24.9302 16.8413 25.163 16.8413H30.18C32.7774 16.8413 34.6641 17.377 35.8465 18.4518C37.0287 19.5264 37.6198 21.2098 37.6198 23.5051C37.6198 25.7972 37.0287 27.4806 35.8465 28.5521C34.6641 29.6237 32.7774 30.1594 30.18 30.1594H25.163C24.9302 30.1594 24.7312 30.0769 24.5627 29.9121C24.3942 29.7504 24.3115 29.5476 24.3115 29.3034ZM27.693 27.5313H30.082C31.69 27.5313 32.7865 27.227 33.3655 26.6214C33.9444 26.0128 34.2353 24.9761 34.2353 23.5051C34.2353 22.0341 33.9444 20.9942 33.3655 20.3824C32.7865 19.7737 31.69 19.4694 30.082 19.4694H27.693V27.5313Z" fill="white"/>
</g>
<defs>
<linearGradient id="paint0_linear_636_4026" x1="27.1231" y1="46" x2="83.7338" y2="-42.8856" gradientUnits="userSpaceOnUse">
<stop stop-color="#2F8D37"/>
<stop offset="1" stop-color="#4DAB55"/>
</linearGradient>
<clipPath id="clip0_636_4026">
<rect width="134" height="33" fill="white" transform="translate(15 7)"/>
</clipPath>
</defs>
</svg>
