<svg width="18" height="18" viewBox="0 0 18 18" fill="none" xmlns="http://www.w3.org/2000/svg">
<path d="M1.88889 14.3166C1.63704 14.3166 1.42607 14.2312 1.256 14.0606C1.08533 13.8905 1 13.6795 1 13.4277C1 13.1758 1.08533 12.9649 1.256 12.7948C1.42607 12.6241 1.63704 12.5388 1.88889 12.5388H16.1111C16.363 12.5388 16.5739 12.6241 16.744 12.7948C16.9147 12.9649 17 13.1758 17 13.4277C17 13.6795 16.9147 13.8905 16.744 14.0606C16.5739 14.2312 16.363 14.3166 16.1111 14.3166H1.88889ZM1.88889 9.87212C1.63704 9.87212 1.42607 9.78679 1.256 9.61612C1.08533 9.44605 1 9.23509 1 8.98324C1 8.73138 1.08533 8.52012 1.256 8.34946C1.42607 8.17938 1.63704 8.09435 1.88889 8.09435H16.1111C16.363 8.09435 16.5739 8.17938 16.744 8.34946C16.9147 8.52012 17 8.73138 17 8.98324C17 9.23509 16.9147 9.44605 16.744 9.61612C16.5739 9.78679 16.363 9.87212 16.1111 9.87212H1.88889ZM1.88889 5.42768C1.63704 5.42768 1.42607 5.34264 1.256 5.17257C1.08533 5.0019 1 4.79064 1 4.53879C1 4.28694 1.08533 4.07568 1.256 3.90501C1.42607 3.73494 1.63704 3.6499 1.88889 3.6499H16.1111C16.363 3.6499 16.5739 3.73494 16.744 3.90501C16.9147 4.07568 17 4.28694 17 4.53879C17 4.79064 16.9147 5.0019 16.744 5.17257C16.5739 5.34264 16.363 5.42768 16.1111 5.42768H1.88889Z" fill="url(#paint0_linear_610_5238)"/>
<defs>
<linearGradient id="paint0_linear_610_5238" x1="3.64615" y1="14.3166" x2="16.9703" y2="5.51465" gradientUnits="userSpaceOnUse">
<stop stop-color="#2F8D37"/>
<stop offset="1" stop-color="#4DAB55"/>
</linearGradient>
</defs>
</svg>
