<svg width="35" height="35" viewBox="0 0 35 35" fill="none" xmlns="http://www.w3.org/2000/svg">
<circle cx="17.5" cy="17.5" r="17.5" fill="url(#paint0_linear_607_3993)"/>
<path d="M24.7286 12.9312C22.1856 8.99987 16.9937 7.83111 12.9673 10.2749C9.04685 12.7186 7.77535 18.0312 10.3183 21.9625L10.5303 22.2812L9.6826 25.4687L12.8613 24.6187L13.1792 24.8312C14.5567 25.575 16.0401 26 17.5235 26C19.1129 26 20.7022 25.575 22.0797 24.725C26.0001 22.175 27.1657 16.9687 24.7286 12.9312V12.9312ZM22.5035 21.1125C22.0797 21.75 21.5499 22.175 20.8082 22.2812C20.3844 22.2812 19.8546 22.4937 17.7354 21.6437C15.9341 20.7937 14.4507 19.4124 13.3911 17.8187C12.7554 17.0749 12.4375 16.1187 12.3315 15.1624C12.3315 14.3124 12.6494 13.5687 13.1792 13.0374C13.3911 12.8249 13.603 12.7186 13.815 12.7186H14.3447C14.5567 12.7186 14.7686 12.7186 14.8745 13.1437C15.0865 13.6749 15.6162 14.9499 15.6162 15.0562C15.7222 15.1624 15.7222 15.3749 15.6162 15.4812C15.7222 15.6937 15.6162 15.9062 15.5103 16.0124C15.4043 16.1187 15.2984 16.3312 15.1924 16.4374C14.9805 16.5437 14.8745 16.7562 14.9805 16.9687C15.4043 17.6062 15.9341 18.2437 16.4639 18.7749C17.0997 19.3062 17.7354 19.7312 18.4771 20.05C18.689 20.1562 18.9009 20.1562 19.0069 19.9437C19.1129 19.7312 19.6426 19.1999 19.8546 18.9874C20.0665 18.7749 20.1724 18.7749 20.3844 18.8812L22.0797 19.7312C22.2916 19.8375 22.5035 19.9437 22.6095 20.05C22.7154 20.3687 22.7154 20.7937 22.5035 21.1125V21.1125Z" fill="white"/>
<defs>
<linearGradient id="paint0_linear_607_3993" x1="1.86667" y1="32.375" x2="33.8994" y2="30.1236" gradientUnits="userSpaceOnUse">
<stop stop-color="#1D9229"/>
<stop offset="1" stop-color="#3BB047"/>
</linearGradient>
</defs>
</svg>
