<svg width="45" height="45" viewBox="0 0 45 45" fill="none" xmlns="http://www.w3.org/2000/svg">
<path d="M41 3C41.5523 3 42 3.44772 42 4V38C42 38.5523 41.5523 39 41 39H4C3.44772 39 3 38.5523 3 38V26.16C3.00238 25.9496 3.04902 25.742 3.13689 25.5507C3.22475 25.3595 3.35188 25.1889 3.51 25.05L12.51 15.39C12.7275 15.1989 12.9957 15.0748 13.2822 15.0328C13.5687 14.9907 13.8612 15.0325 14.1245 15.153C14.3877 15.2735 14.6105 15.4677 14.7659 15.712C14.9212 15.9564 15.0025 16.2405 15 16.53V23.0016C15 23.9081 16.1094 24.3469 16.7295 23.6856L24.48 15.42C24.6946 15.2209 24.9628 15.089 25.2515 15.0405C25.5402 14.992 25.8368 15.0291 26.1047 15.1471C26.3726 15.2651 26.6001 15.4589 26.7592 15.7046C26.9183 15.9504 27.002 16.2373 27 16.53V32C27 32.5523 27.4477 33 28 33H35C35.5523 33 36 32.5523 36 32V4C36 3.44772 36.4477 3 37 3H41Z" fill="url(#paint0_linear_628_4025)"/>
<defs>
<linearGradient id="paint0_linear_628_4025" x1="9.45" y1="39" x2="47.4507" y2="20.8699" gradientUnits="userSpaceOnUse">
<stop stop-color="#2F8D37"/>
<stop offset="1" stop-color="#4DAB55"/>
</linearGradient>
</defs>
</svg>
